<svg width="37" height="27" fill="none" xmlns="http://www.w3.org/2000/svg"><path d="M36.797 19.597H0v.383h36.797v-.383zM2.686 22.195v.756h-.969v3.219H.931v-3.219H0v-.756h2.686zm.517.983c.182-.313.429-.562.742-.747.312-.186.65-.28 1.015-.28.364 0 .703.094 1.015.28.312.185.56.434.747.747.187.313.279.65.279 1.01 0 .368-.092.707-.279 1.016a2.09 2.09 0 01-.747.737 1.99 1.99 0 01-1.015.272c-.369 0-.708-.09-1.018-.272a2.051 2.051 0 01-.74-.737 1.96 1.96 0 01-.272-1.015c0-.36.091-.698.273-1.01zm.704 1.647a1.232 1.232 0 001.08.632c.224 0 .428-.056.612-.17a1.22 1.22 0 00.434-.459c.104-.192.157-.405.157-.64 0-.237-.055-.453-.163-.647a1.242 1.242 0 00-.441-.462 1.165 1.165 0 00-.62-.17 1.16 1.16 0 00-.62.17 1.234 1.234 0 00-.442.462 1.3 1.3 0 00-.163.648c.001.23.056.442.166.636zm6.083-2.272c.268.24.401.567.401.98 0 .238-.045.46-.138.667a1.164 1.164 0 01-.45.51c-.207.135-.475.201-.803.201h-.563v1.258H7.65v-3.975h1.207c.488 0 .866.12 1.133.36zm-.638 1.497a.593.593 0 00.195-.236.637.637 0 00.059-.259.75.75 0 00-.125-.408c-.083-.13-.243-.196-.481-.196h-.563v1.2h.557a.596.596 0 00.358-.101zM15 22.194v.756h-.97v3.22h-.785v-3.22h-.931v-.756H15zm2.772 3.976l-.84-1.265h-.524v1.264h-.786v-3.975h1.207c.495 0 .878.12 1.151.36.273.239.41.566.41.98 0 .244-.052.474-.155.687a1.148 1.148 0 01-.474.506l.926 1.442h-.915zm-1.364-2.02h.557c.213 0 .368-.063.466-.187a.64.64 0 00.146-.402.759.759 0 00-.125-.414c-.083-.13-.243-.196-.481-.196h-.563v1.198zm4.98 1.242h-1.32l-.326.778h-.774l1.797-4.131h.043l1.798 4.131h-.91l-.308-.778zm-.26-.658l-.384-.967-.4.967h.785zm1.923-2.54h1.19c.51 0 .928.098 1.257.294.328.196.567.45.717.762.15.312.224.645.224 1.002a1.825 1.825 0 01-.999 1.682 2.17 2.17 0 01-1.004.235H23.05v-3.975h.001zm1.25 3.219c.409 0 .732-.104.97-.313.239-.209.358-.51.358-.902 0-.317-.066-.569-.198-.757a1.063 1.063 0 00-.46-.389 1.305 1.305 0 00-.496-.108h-.64v2.469h.467zm5.508-3.218v.756h-1.933v.847h1.71v.756h-1.71v.859h2.009v.756H27.09v-3.975h2.718zm2.901 3.975l-.838-1.265h-.525v1.264h-.786v-3.975h1.207c.495 0 .878.12 1.151.36.273.239.41.566.41.98 0 .244-.052.474-.155.687a1.148 1.148 0 01-.474.506l.926 1.442h-.915zm-1.363-2.02h.557c.213 0 .368-.063.466-.187a.64.64 0 00.146-.402.759.759 0 00-.125-.414c-.083-.13-.243-.196-.481-.196h-.563v1.198zm4.018-1.28c-.173 0-.308.034-.404.102-.096.068-.143.17-.143.307 0 .127.07.238.208.332.14.096.324.186.556.273.187.068.348.147.481.235s.244.21.333.364c.088.155.133.351.133.589 0 .205-.053.394-.16.569a1.112 1.112 0 01-.469.416 1.638 1.638 0 01-.736.154c-.238 0-.475-.035-.709-.105a2.217 2.217 0 01-.655-.322l.346-.61c.137.1.294.183.471.249.177.064.336.096.477.096.166 0 .31-.035.432-.105.123-.07.184-.184.184-.342 0-.205-.193-.384-.58-.535a5.273 5.273 0 01-.568-.26 1.158 1.158 0 01-.393-.356.98.98 0 01-.164-.584c0-.341.112-.617.338-.826.226-.209.526-.323.902-.34.296 0 .543.033.742.1.198.066.39.161.58.284l-.298.6c-.347-.19-.647-.285-.904-.285zM6.632 9.24H5.48v7.56h1.152V9.24zm7.948-4.81h-1.152v8.142h1.151V4.43zm3.998 8.14h-1.151v4.77h1.151v-4.77zm0-12.569h-1.151V1.85h1.151V0zm4 4.257h-1.152v8.314h1.152V4.258z" fill="#fff"/><path d="M19.63 13.18h-3.256V1.065h3.257V13.18zm-2.105-1.149h.954V2.214h-.954v9.817zm-1.892 5.344h-3.258v-5.342h3.257v5.342zm-2.107-1.148h.954V13.18h-.954v3.046zm-6.418-1.459H5.002V16.8h2.106v-2.032z" fill="#fff"/><path d="M7.684 17.373H4.427v-3.181h3.257v3.181zm-2.105-1.148h.954v-.884h-.954v.884zm18.051 1.15h-3.257v-5.342h3.257v5.342zm-2.107-1.148h.955V13.18h-.955v3.046zm-10.748-4.395H9.624v5.508h1.151v-5.508zm0-8.134H9.624v1.479h1.151v-1.48zM2.487 14.79H1.335v2.55h1.152v-2.55zm0-6.286H1.335v1.479h1.152v-1.48z" fill="#fff"/><path d="M3.54 15.312H.283V9.434H3.54v5.878zm-2.106-1.148h.955v-3.582h-.955v3.582zM31.087 9.24h-1.152v7.56h1.152V9.24zm4.143 5.55h-1.15v2.55h1.151v-2.55zm0-6.286h-1.15v1.849h1.151v-1.85zm-8.286 3.698h-1.152v5.138h1.152v-5.138zm-.001-8.504h-1.152v1.109h1.152v-1.11z" fill="#fff"/><path d="M36.284 15.371h-3.257V9.433h3.257v5.938zm-2.106-1.149h.954v-3.64h-.954v3.64zm-6.183-1.582h-3.257V4.402h3.258v8.238zm-2.105-1.15h.954V5.55h-.954v5.94zm-14.062 1.15H8.57V4.402h3.257v8.238zm-2.106-1.15h.955V5.55h-.955v5.94zm21.842 3.278h-2.107V16.8h2.107v-2.032z" fill="#fff"/><path d="M32.14 17.373h-3.257v-3.181h3.257v3.181zm-2.106-1.148h.954v-.884h-.954v.884z" fill="#fff"/></svg>