<svg width="78" height="56" fill="none" xmlns="http://www.w3.org/2000/svg"><path d="M77.308 41.591H0v.805h77.308v-.805zM5.644 47.05v1.588H3.607V55.4h-1.65v-6.763H0v-1.589h5.644zm1.085 2.065a4.324 4.324 0 011.558-1.57 4.092 4.092 0 012.133-.586c.765 0 1.477.195 2.132.586.656.389 1.18.913 1.571 1.57.392.658.586 1.366.586 2.123 0 .772-.194 1.483-.586 2.133a4.391 4.391 0 01-1.57 1.549 4.18 4.18 0 01-2.133.572 4.165 4.165 0 01-2.139-.572 4.31 4.31 0 01-1.551-1.55 4.118 4.118 0 01-.574-2.133c0-.757.192-1.465.574-2.123zm1.479 3.46c.231.41.547.732.945.971.4.24.84.357 1.325.357.47 0 .9-.117 1.285-.357.386-.239.69-.56.911-.964.22-.405.33-.851.33-1.344 0-.5-.114-.953-.342-1.361a2.61 2.61 0 00-.927-.97 2.449 2.449 0 00-1.303-.358 2.45 2.45 0 00-1.303.357c-.392.24-.7.562-.927.97a2.744 2.744 0 00-.342 1.362c.002.483.118.93.348 1.338zm12.782-4.772c.561.502.84 1.19.84 2.059 0 .498-.095.966-.289 1.4a2.447 2.447 0 01-.945 1.073c-.436.281-1 .42-1.689.42h-1.183V55.4h-1.65v-8.352h2.535c1.026 0 1.819.253 2.38.756zm-1.343 3.143c.19-.142.325-.305.41-.494.083-.19.123-.371.123-.545 0-.295-.086-.58-.262-.857-.174-.275-.511-.412-1.01-.412h-1.184v2.52h1.171c.312-.003.562-.073.752-.212zm11.866-3.899v1.589h-2.036v6.763h-1.65v-6.763H25.87v-1.589h5.643zm5.824 8.352l-1.763-2.655h-1.103v2.655h-1.65v-8.352h2.535c1.04 0 1.845.251 2.419.756.573.502.859 1.19.859 2.059 0 .514-.108.996-.324 1.445-.216.45-.55.805-.995 1.062l1.944 3.03h-1.922zm-2.866-4.244h1.171c.448 0 .774-.131.98-.39.203-.262.305-.543.305-.846 0-.303-.086-.592-.262-.869-.173-.275-.511-.412-1.01-.412H34.47v2.517zm10.464 2.612h-2.776l-.683 1.634h-1.627l3.777-8.68h.09l3.777 8.68h-1.91l-.648-1.634zm-.546-1.384l-.807-2.03-.841 2.03h1.648zm4.039-5.336h2.502c1.07 0 1.949.205 2.638.618.69.413 1.193.947 1.507 1.6.314.656.472 1.356.472 2.105 0 .802-.19 1.51-.57 2.121a3.833 3.833 0 01-1.529 1.413 4.558 4.558 0 01-2.11.495h-2.912v-8.352h.002zm2.628 6.763c.858 0 1.537-.22 2.037-.658.501-.438.751-1.07.751-1.895 0-.666-.138-1.194-.416-1.589-.277-.395-.6-.666-.967-.817a2.74 2.74 0 00-1.041-.227h-1.343v5.186h.98zm11.57-6.76v1.588h-4.061v1.78h3.593v1.588h-3.593v1.804h4.22v1.59h-5.87v-8.352h5.71v.002zm6.096 8.349l-1.762-2.655h-1.103v2.655h-1.651v-8.352h2.536c1.04 0 1.844.251 2.418.756.574.502.86 1.19.86 2.059 0 .514-.108.996-.324 1.445-.216.45-.55.805-.995 1.062l1.944 3.03h-1.923zm-2.865-4.244h1.17c.448 0 .774-.131.98-.39.204-.262.306-.543.306-.846 0-.303-.086-.592-.262-.869-.174-.275-.512-.412-1.011-.412h-1.183v2.517zm8.441-2.688c-.364 0-.647.072-.847.215-.202.144-.302.359-.302.646 0 .265.146.498.438.697.291.202.681.391 1.167.572.393.144.731.31 1.011.495.28.185.514.44.7.765.185.325.28.738.28 1.236 0 .43-.113.83-.337 1.196-.223.369-.551.658-.985.875-.431.215-.949.323-1.547.323-.5 0-.997-.074-1.488-.221a4.66 4.66 0 01-1.377-.676l.727-1.282c.288.212.618.385.99.523.371.135.705.203 1 .203.35 0 .652-.074.91-.221.258-.148.386-.387.386-.72 0-.43-.406-.805-1.217-1.124-.478-.19-.878-.37-1.195-.544a2.43 2.43 0 01-.826-.75c-.232-.325-.346-.733-.346-1.225 0-.718.236-1.298.712-1.737.474-.438 1.105-.677 1.894-.715.622 0 1.141.07 1.56.211.415.14.82.339 1.216.596l-.625 1.26c-.728-.397-1.36-.598-1.899-.598zM13.933 19.833h-2.42v15.882h2.42V19.833zM30.63 9.726h-2.42v17.106h2.42V9.726zm8.401 17.104h-2.42v10.017h2.42V26.83zM39.032.422h-2.42v3.884h2.42V.422zm8.401 8.944h-2.42v17.466h2.42V9.366z" fill="#263238"/><path d="M41.242 28.11h-6.843V2.657h6.843V28.11zm-4.425-2.413h2.005V5.07h-2.005v20.626zm-3.975 11.225h-6.844V25.7h6.842v11.222h.002zm-4.424-2.412h2.004v-6.398h-2.004v6.398zm-13.484-3.065H10.51v4.27h4.425v-4.27z" fill="#263238"/><path d="M16.143 36.918H9.302v-6.683h6.842v6.683zm-4.422-2.411h2.004v-1.858h-2.004v1.858zm37.923 2.415H42.8V25.7h6.843v11.222zm-4.425-2.412h2.004v-6.398H45.22v6.398zm-22.58-9.233h-2.42V36.85h2.42V25.277zm0-17.089h-2.42v3.107h2.42V8.188zM5.226 31.493h-2.42v5.356h2.42v-5.356zm0-13.208h-2.42v3.107h2.42v-3.107z" fill="#263238"/><path d="M7.438 32.589H.595v-12.35h6.843v12.35zm-4.425-2.412h2.005v-7.526H3.013v7.526zm62.298-10.344h-2.42v15.882h2.42V19.833zm8.706 11.66h-2.42v5.357h2.42v-5.357zm0-13.208h-2.42v3.884h2.42v-3.884zm-17.411 7.769h-2.42v10.794h2.42V26.054zm0-17.866h-2.42v2.33h2.42v-2.33z" fill="#263238"/><path d="M76.229 32.713h-6.843V20.237h6.843v12.476zm-4.425-2.414h2.005v-7.648h-2.005V30.3zm-12.988-3.325h-6.842V9.668h6.842v17.307zm-4.424-2.413h2.004V12.08h-2.004v12.48zm-29.543 2.413h-6.843V9.668h6.843v17.307zm-4.423-2.413h2.005V12.08h-2.005v12.48zm45.887 6.884h-4.425v4.27h4.425v-4.27z" fill="#263238"/><path d="M67.524 36.918H60.68v-6.683h6.843v6.683zm-4.425-2.411h2.005v-1.858h-2.005v1.858z" fill="#263238"/></svg>