<svg width="34" height="29" fill="none" xmlns="http://www.w3.org/2000/svg"><path fill-rule="evenodd" clip-rule="evenodd" d="M28.924 6.079l-12.297 6.314c-.065.029-.123.055-.181.077v.01c-.305.1-.503.114-.808 0V9.523h-.746V.829h.746V.083a1.11 1.11 0 01.798-.016c.045.013.094.029.143.048 4.374 1.654 8.752 3.311 13.13 4.965.12.1.126.201.126.302v5.752l.383.214v2.43c-.315.252-.526.298-.772.31a1.183 1.183 0 01-.892-.31l.004-2.423.372-.217-.006-5.06zM15.7 1.665h.687v7.021H15.7v-7.02z" fill="#FDFDFD"/><path fill-rule="evenodd" clip-rule="evenodd" d="M25.234 8.959c-2.883 1.478-5.77 2.954-8.652 4.432-.422.172-.665.153-1.06-.006l-8.36-4.426v4.05c1.611 2.046 5.256 3.259 8.907 3.307 3.759.052 7.527-1.125 9.122-3.307l.043-4.05z" fill="#FDFDFD"/><path fill-rule="evenodd" clip-rule="evenodd" d="M10.05 2.46h-.745v5.915h.746v1.261l.836.428v-1.69h.746V2.46h-.746v-.6l-.836.318v.282zm.092.836h.687v4.242h-.687V3.296zm2.629 4.732h-.745v2.62l2.328 1.203V8.028h-.746V.835l-.837.318v6.875zm.091.804h.688v2.212h-.688V8.832z" fill="#FDFDFD"/><path fill-rule="evenodd" clip-rule="evenodd" d="M12.771 8.028h-.745v2.62l2.328 1.203V8.028h-.746V.835l-.837.318v6.875zm.091.804h.688v2.212h-.688V8.832zm-7.14-1.423V4.717h-.746v-.626l-.84.312v.314H3.39v1.489l2.332 1.203zM4.227 5.52h.687v1.47l-.687-.354V5.52zm2.866 1.15h-.745v1.06l2.331 1.21V6.67H7.93V2.975l-.837.317V6.67z" fill="#FDFDFD"/><path d="M0 19.635h.885v2.971h.673v-2.971h.908v-.655H0v.655zm5.64 2.76c.284-.164.513-.39.678-.67.169-.283.253-.593.253-.926 0-.326-.084-.64-.253-.923a1.959 1.959 0 00-.678-.682 1.78 1.78 0 00-.922-.253 1.8 1.8 0 00-.931.253 1.916 1.916 0 00-.678.678 1.817 1.817 0 00-.249.927 1.84 1.84 0 001.853 1.845c.334 0 .644-.084.927-.249zm-.926-2.799c.21 0 .406.054.582.161.176.107.318.253.425.437.107.183.157.386.157.605 0 .218-.054.42-.153.6a1.161 1.161 0 01-.418.433 1.11 1.11 0 01-.578.157c-.214 0-.414-.053-.59-.16a1.19 1.19 0 01-.582-1.03 1.203 1.203 0 01.57-1.042 1.11 1.11 0 01.587-.16zM7.9 21.385h.448c.29 0 .532-.058.72-.177a1.02 1.02 0 00.41-.455c.084-.184.126-.383.126-.59 0-.367-.119-.662-.356-.873-.234-.207-.563-.314-.973-.314H7.222v3.626H7.9v-1.217zm.448-.655H7.9v-1.095h.463c.207 0 .352.057.433.164a.596.596 0 01.072.625.496.496 0 01-.183.218.578.578 0 01-.337.088zm4.024 1.876h.674v-2.971h.908v-.655H11.49v.655h.881v2.971zm2.876-1.221h.475l.792 1.221h.79l-.878-1.39a.99.99 0 00.402-.421 1.39 1.39 0 00.146-.628c0-.371-.127-.662-.375-.873-.245-.207-.575-.314-.98-.314h-1.046v3.626h.678v-1.221h-.004zm1.03-1.199a.596.596 0 01-.138.383c-.088.111-.237.165-.444.165h-.444v-1.1h.463c.138 0 .249.031.333.089a.48.48 0 01.176.21.668.668 0 01.054.253zm3.362 1.597l.322.827h.773l-1.59-3.741-.01-.035h-.112l-1.604 3.772h.681l.337-.827h1.203v.004zm-.234-.597h-.723l.367-.9.356.9zm3.925 1.206a1.696 1.696 0 00.912-1.551c0-.318-.07-.617-.203-.9a1.639 1.639 0 00-.651-.693c-.295-.18-.674-.268-1.122-.268H21.21v3.626h1.225c.318 0 .62-.073.896-.214zm-1.447-.44V19.63h.532c.184 0 .364.042.536.126.173.08.314.21.425.387.111.176.169.398.169.663 0 .24-.054.451-.153.624a.976.976 0 01-.425.39 1.468 1.468 0 01-.64.134h-.444v-.004zm5.521-.001h-1.834v-.838h1.574v-.659h-1.574v-.82h1.765v-.654H24.89v3.626h2.515v-.655zm2.934-1.16c.095-.191.145-.402.145-.628 0-.371-.126-.662-.375-.873-.245-.207-.575-.314-.98-.314h-1.046v3.626h.678v-1.217h.475l.793 1.221h.788l-.877-1.394a.96.96 0 00.399-.42zm-.552-.605a.596.596 0 01-.138.383c-.088.111-.237.165-.444.165h-.444v-1.1h.463a.58.58 0 01.334.089c.084.061.145.13.176.21a.6.6 0 01.053.253zm3.274.517a2.191 2.191 0 00-.456-.215 2.527 2.527 0 01-.52-.256c-.111-.077-.165-.172-.165-.284 0-.118.042-.206.13-.271a.62.62 0 01.38-.104c.225 0 .486.077.78.23l.054.027.26-.529-.042-.026a1.951 1.951 0 00-.505-.23c-.18-.054-.39-.08-.628-.08-.33.015-.601.114-.804.298-.207.184-.31.433-.31.735 0 .207.05.383.153.525.1.138.218.245.36.322.134.072.302.149.505.222.172.065.318.141.421.23.096.08.142.175.142.294 0 .15-.053.26-.168.33-.219.137-.506.153-.85.026a1.458 1.458 0 01-.406-.218l-.054-.038-.31.54.042.03c.165.119.356.215.567.28.21.069.428.103.643.103.249 0 .471-.046.655-.141a1.001 1.001 0 00.578-.919c0-.215-.042-.399-.13-.54a1.02 1.02 0 00-.322-.341zM6.612 24.625h-.11l-1.605 3.771h.681l.337-.827h1.203l.321.827h.774l-1.59-3.737-.01-.034zm.276 2.35h-.724l.368-.9.356.9zm4.185.545a1.1 1.1 0 01-.33.187c-.13.05-.279.072-.44.072-.225 0-.428-.053-.6-.153a1.04 1.04 0 01-.399-.425 1.374 1.374 0 01-.142-.624 1.226 1.226 0 01.56-1.034c.39-.245.872-.203 1.31.108l.056.042.269-.636-.043-.027a2.204 2.204 0 00-.478-.214 1.941 1.941 0 00-.59-.085c-.345 0-.655.08-.923.242a1.7 1.7 0 00-.635.67c-.15.283-.226.609-.226.969 0 .329.076.635.226.91.149.277.367.503.647.663a1.9 1.9 0 00.98.245 1.884 1.884 0 001.057-.322l.038-.026-.287-.613-.05.05zm2.297-2.896h-.11l-1.605 3.772h.682l.337-.827h1.202l.322.827h.773l-1.589-3.738-.011-.034zm.273 2.351h-.724l.367-.9.357.9zm3.978-1.937c-.295-.18-.674-.268-1.122-.268h-1.057v3.626h1.226c.321 0 .624-.073.9-.219.275-.145.497-.352.662-.62.165-.268.249-.578.249-.93 0-.318-.069-.617-.203-.9a1.734 1.734 0 00-.655-.69zm.161 1.554c0 .242-.054.452-.153.624a.976.976 0 01-.425.391 1.469 1.469 0 01-.64.134h-.444v-2.32h.532c.184 0 .364.042.537.126.172.08.314.21.424.387.112.172.169.394.169.658zm2.026.31h1.573v-.654h-1.573v-.824h1.765v-.654h-2.447v3.63h2.516v-.659h-1.834v-.839zm6.076-2.259l-1.753 2.44-1.704-2.413-.023-.027h-.088V28.4h.662v-1.83l1.095 1.52.03.023h.058l1.145-1.623v1.91h.674v-3.698l-.011-.058h-.085zm2.244 1.792l-.873-1.665h-.823l1.34 2.446V28.4h.674v-1.184l1.356-2.447h-.823l-.85 1.666z" fill="#FDFDFD"/></svg>