<svg width="66" height="57" fill="none" xmlns="http://www.w3.org/2000/svg"><path fill-rule="evenodd" clip-rule="evenodd" d="M56.677 12.33L32.581 24.704a7.439 7.439 0 01-.355.152v.02c-.598.196-.985.221-1.583 0V19.08h-1.461V2.043h1.461V.581c.483-.19 1.074-.228 1.563-.031.09.025.185.057.28.095 8.572 3.24 17.15 6.488 25.729 9.729.235.196.248.393.248.59v11.273l.75.42v4.759c-.617.495-1.03.584-1.513.61-.534.025-1.137-.07-1.747-.61l.006-4.747.73-.426-.012-9.912zM30.764 3.683h1.347V17.44h-1.347V3.682z" fill="#263238"/><path fill-rule="evenodd" clip-rule="evenodd" d="M49.446 17.973c-5.65 2.898-11.304 5.79-16.953 8.687-.827.336-1.303.298-2.078-.013l-16.382-8.674v7.937c3.158 4.01 10.3 6.386 17.456 6.481 7.364.102 14.748-2.205 17.874-6.481l.083-7.937z" fill="#263238"/><path fill-rule="evenodd" clip-rule="evenodd" d="M19.695 5.24h-1.462v11.59h1.462v2.47l1.64.839v-3.31h1.46V5.24h-1.46V4.063l-1.64.622v.553zm.178 1.639h1.347v8.311h-1.347V6.879zm5.153 9.271h-1.461v5.134l4.562 2.357V16.15h-1.461V2.056l-1.64.622V16.15zm.178 1.575h1.347v4.334h-1.347v-4.334z" fill="#263238"/><path fill-rule="evenodd" clip-rule="evenodd" d="M25.026 16.15h-1.461v5.134l4.562 2.357V16.15h-1.461V2.056l-1.64.622V16.15zm.178 1.575h1.347v4.334h-1.347v-4.334zm-13.992-2.789V9.662H9.75V8.436l-1.645.61v.616H6.643v2.917l4.569 2.357zm-2.93-3.698H9.63v2.878l-1.347-.692v-2.186zm5.618 2.249h-1.462v2.078l4.57 2.37v-4.448h-1.469V6.25l-1.64.622v6.615z" fill="#263238"/><path d="M0 38.894h1.733v5.822h1.32v-5.822h1.78V37.61H0v1.283zm11.052 5.409a3.654 3.654 0 001.329-1.313c.33-.556.495-1.163.495-1.816 0-.638-.165-1.253-.495-1.808a3.838 3.838 0 00-1.329-1.336 3.489 3.489 0 00-1.808-.495 3.52 3.52 0 00-1.823.495c-.555.33-1.006.78-1.328 1.328a3.56 3.56 0 00-.488 1.816c0 .66.165 1.276.488 1.823.322.548.765.99 1.32 1.313a3.56 3.56 0 001.824.48c.652 0 1.26-.165 1.815-.487zm-1.815-5.485c.412 0 .795.105 1.14.315.345.21.623.495.833.855.21.36.308.758.308 1.186 0 .428-.105.825-.3 1.178-.203.36-.473.638-.818.848a2.18 2.18 0 01-1.133.307c-.42 0-.81-.105-1.156-.315a2.33 2.33 0 01-1.14-2.018c0-.428.105-.825.3-1.186.202-.36.48-.645.818-.855.345-.21.727-.315 1.148-.315zm6.243 3.504h.877c.57 0 1.043-.112 1.411-.345a2 2 0 00.803-.893c.165-.36.247-.75.247-1.155 0-.72-.232-1.298-.697-1.711-.458-.405-1.103-.615-1.906-.615H14.15v7.105h1.329v-2.386zm.877-1.283h-.877v-2.146h.907c.405 0 .69.113.848.323a1.165 1.165 0 01.143 1.223.971.971 0 01-.36.428c-.158.112-.383.172-.66.172zm7.886 3.677h1.32v-5.822h1.779V37.61h-4.825v1.283h1.726v5.822zm5.635-2.393h.93l1.554 2.393h1.545l-1.718-2.724a1.94 1.94 0 00.788-.825c.188-.375.285-.788.285-1.23 0-.728-.247-1.299-.735-1.711-.48-.405-1.126-.615-1.921-.615h-2.048v7.105h1.328v-2.393h-.008zm2.019-2.349c0 .278-.09.525-.27.75-.173.218-.466.323-.87.323h-.871v-2.153h.908c.27 0 .487.06.652.172a.94.94 0 01.346.413c.067.165.105.33.105.495zm6.588 3.128l.63 1.621h1.516l-3.114-7.33-.023-.068h-.217l-3.144 7.39h1.335l.66-1.62h2.357v.007zm-.458-1.17h-1.418l.72-1.763.698 1.763zm7.691 2.364c.54-.285.975-.69 1.298-1.216.322-.525.487-1.133.487-1.823 0-.623-.135-1.208-.397-1.763-.27-.555-.698-1.013-1.276-1.358-.578-.353-1.32-.526-2.198-.526H41.56v7.106h2.4a3.81 3.81 0 001.757-.42zm-2.837-.863v-4.547h1.043c.36 0 .713.083 1.05.248.338.157.616.412.834.758.217.345.33.78.33 1.298 0 .472-.105.885-.3 1.223a1.92 1.92 0 01-.833.765c-.36.172-.78.263-1.253.263h-.87v-.008zm10.82 0h-3.594V41.79h3.084V40.5h-3.084v-1.606h3.46V37.61h-4.795v7.105h4.93v-1.283zm5.748-2.273c.188-.376.285-.789.285-1.231 0-.728-.248-1.298-.735-1.711-.48-.405-1.126-.615-1.921-.615h-2.049v7.105h1.329v-2.386h.93l1.553 2.394h1.546l-1.718-2.731c.345-.196.607-.473.78-.826zm-1.08-1.186c0 .277-.09.525-.27.75-.173.218-.466.323-.871.323h-.87v-2.154h.908c.27 0 .487.06.652.173a.95.95 0 01.346.412c.075.166.104.33.104.496zm6.415 1.012a4.301 4.301 0 00-.893-.42c-.435-.165-.78-.338-1.02-.503-.218-.15-.323-.337-.323-.555 0-.232.082-.405.255-.533.18-.135.428-.202.743-.202.442 0 .953.15 1.53.45l.105.053.51-1.036-.082-.052a3.826 3.826 0 00-.99-.45 4.338 4.338 0 00-1.23-.158c-.646.03-1.179.225-1.577.585-.405.36-.607.848-.607 1.44 0 .406.097.751.3 1.029.195.27.427.48.705.63.263.142.593.293.99.435.338.128.623.278.826.45a.717.717 0 01.278.578c0 .293-.106.51-.33.645-.428.27-.991.3-1.666.053a2.857 2.857 0 01-.796-.428l-.105-.075-.608 1.058.083.06c.323.233.698.42 1.11.548.413.135.84.203 1.261.203.488 0 .923-.09 1.283-.278.368-.188.645-.435.84-.75.196-.316.293-.668.293-1.05 0-.421-.082-.781-.255-1.059a1.996 1.996 0 00-.63-.668zM12.957 48.67h-.218l-3.144 7.392h1.336l.66-1.621h2.356l.63 1.62h1.516l-3.114-7.323-.022-.067zm.54 4.608H12.08l.72-1.764.698 1.764zm8.201 1.065c-.172.15-.39.27-.645.367a2.422 2.422 0 01-.863.143 2.33 2.33 0 01-1.178-.3c-.338-.203-.6-.48-.78-.833a2.692 2.692 0 01-.278-1.223c0-.428.098-.825.3-1.178.203-.353.465-.638.796-.848.765-.48 1.71-.398 2.566.21l.112.083.526-1.246-.083-.052a4.324 4.324 0 00-.938-.42 3.808 3.808 0 00-1.155-.166c-.676 0-1.284.158-1.809.473a3.33 3.33 0 00-1.245 1.313c-.293.555-.443 1.193-.443 1.899 0 .645.15 1.245.443 1.785.292.54.72.983 1.268 1.298.548.323 1.193.48 1.92.48.436 0 .841-.067 1.209-.202.367-.135.652-.278.863-.428l.075-.052-.563-1.2-.098.097zM26.2 48.67h-.217l-3.144 7.39h1.335l.66-1.62h2.357l.63 1.62h1.515l-3.113-7.323-.023-.067zm.533 4.607h-1.418l.72-1.763.698 1.763zm7.796-3.797c-.578-.352-1.32-.525-2.198-.525H30.26v7.106h2.4c.631 0 1.224-.143 1.764-.428.54-.285.975-.69 1.298-1.216.323-.525.488-1.133.488-1.823a4.07 4.07 0 00-.398-1.763 3.397 3.397 0 00-1.283-1.35zm.315 3.047c0 .472-.105.885-.3 1.223-.195.337-.48.592-.833.765-.36.172-.78.263-1.253.263h-.87V50.23h1.043c.36 0 .712.082 1.05.247.338.158.615.413.833.758.218.338.33.773.33 1.29zm3.969.607h3.084v-1.283h-3.084v-1.613h3.46v-1.283h-4.795v7.113h4.93v-1.29h-3.595v-1.644zm11.907-4.427l-3.436 4.78-3.339-4.727-.045-.053h-.172v7.36h1.298v-3.586l2.146 2.98.06.044h.112l2.244-3.181v3.744h1.32V48.82l-.022-.113h-.165zm4.398 3.512l-1.71-3.264h-1.614l2.626 4.795v2.318h1.32V53.75l2.657-4.795h-1.613l-1.666 3.264z" fill="#263238"/></svg>