<svg width="47" height="16" fill="none" xmlns="http://www.w3.org/2000/svg"><path d="M17.944 1.03h-1.288V.077h3.76v.938h-1.288v3.257h-1.184V1.029zm2.641 1.159c0-1.264.989-2.189 2.33-2.189 1.34 0 2.328.925 2.328 2.189 0 1.263-.989 2.188-2.329 2.188-1.34 0-2.33-.925-2.33-2.188zm3.474 0c0-.73-.494-1.199-1.132-1.199-.638 0-1.132.47-1.132 1.199 0 .73.494 1.198 1.132 1.198.625 0 1.132-.469 1.132-1.198zm5.609-.548c0 .951-.716 1.55-1.861 1.55h-.742v1.095h-1.184V.078h1.926c1.132 0 1.86.6 1.86 1.563zm-1.197 0c0-.39-.248-.612-.742-.612h-.664v1.238h.664c.494-.013.742-.248.742-.626zm-10.527 4.99h-1.288v-.938h3.76v.938h-1.288v3.257h-1.184V6.631zm4.75 2.149h-.65v1.121h-1.185V5.693h1.926c1.145 0 1.86.6 1.86 1.55 0 .613-.299 1.082-.82 1.33l.912 1.315h-1.275l-.768-1.107zm.013-2.149h-.664V7.87h.664c.494 0 .741-.235.741-.612 0-.404-.247-.626-.741-.626zM28.12 9.08h-1.783l-.325.821h-1.21l1.847-4.208h1.171l1.861 4.208h-1.236l-.325-.82zm-.352-.872l-.546-1.342-.534 1.342h1.08zm2.252-2.515h1.99c1.393 0 2.343.808 2.343 2.098 0 1.29-.95 2.097-2.342 2.097H30.02V5.693zm1.939 3.257c.715 0 1.197-.43 1.197-1.16 0-.729-.482-1.159-1.197-1.159h-.755v2.306h.755v.013zm6.389.026v.925h-3.37V5.693h3.292v.925h-2.121v.704h1.86v.886h-1.86v.768h2.199zm2.498-.196h-.65v1.121H39.01V5.693h1.926c1.145 0 1.861.6 1.861 1.55 0 .613-.3 1.082-.82 1.33l.911 1.315h-1.275l-.768-1.107zm.013-2.149h-.664V7.87h.664c.495 0 .742-.235.742-.612 0-.404-.247-.626-.742-.626zm2.291 2.892l.39-.873a2.65 2.65 0 001.393.417c.494 0 .69-.143.69-.339 0-.664-2.395-.182-2.395-1.745 0-.756.612-1.368 1.861-1.368.547 0 1.106.13 1.523.365l-.365.885c-.403-.221-.794-.325-1.158-.325-.494 0-.677.17-.677.378 0 .638 2.382.156 2.382 1.706 0 .73-.612 1.355-1.861 1.355-.703 0-1.38-.182-1.783-.456zm-25.206 2.723h-1.288v-.938h3.76v.938h-1.288v3.257h-1.184v-3.257zm2.641 1.159c0-1.263.989-2.188 2.33-2.188 1.34 0 2.328.925 2.328 2.188 0 1.264-.989 2.19-2.329 2.19-1.34 0-2.33-.926-2.33-2.19zm3.474 0c0-.73-.494-1.198-1.132-1.198-.638 0-1.132.469-1.132 1.198 0 .73.494 1.199 1.132 1.199.625 0 1.132-.469 1.132-1.199zm1.601 0c0-1.263.99-2.188 2.33-2.188s2.33.925 2.33 2.188c0 1.264-.99 2.19-2.33 2.19s-2.33-.926-2.33-2.19zm3.475 0c0-.73-.494-1.198-1.132-1.198-.637 0-1.132.469-1.132 1.198 0 .73.495 1.199 1.132 1.199.625 0 1.132-.469 1.132-1.199zm1.822-2.11h1.184v3.257h2.004v.938h-3.188v-4.195zm3.357 3.83l.39-.873a2.65 2.65 0 001.393.417c.495 0 .69-.143.69-.339 0-.664-2.395-.182-2.395-1.745 0-.756.612-1.368 1.861-1.368.547 0 1.106.13 1.523.365l-.365.885c-.403-.221-.794-.325-1.158-.325-.494 0-.676.17-.676.378 0 .638 2.38.156 2.38 1.706 0 .73-.61 1.355-1.86 1.355-.703.013-1.392-.182-1.783-.456zM12.297 5.823l.885-.885-.65-.652-2.564 2.58.65.651.873-.873 3.995 4v3.895L8.003 7.035l.885-.886-.65-.638L5.66 8.077l.65.639.872-.873 7.652 7.66c-.13.052-.273.091-.417.091h-3.513L6.728 11.4l.885-.886-.651-.651-2.577 2.58.651.638.872-.873 3.37 3.374h-8.21a.925.925 0 01-.417-.091A1.074 1.074 0 010 14.513V1.16C0 .573.481.09 1.067.09h13.351c.586 0 1.068.482 1.068 1.069v7.855l-3.189-3.192z" fill="#fff"/></svg>