<svg width="34" height="35" fill="none" xmlns="http://www.w3.org/2000/svg"><path d="M9.326 6.743V20.5H6.59V9.36H3.345V6.744h5.981zM34 0l-9.21 21.136L19.605 9.36H16.81V20.5h-2.743V9.36h-3.936V6.742h11.601L24.91 14.5 30.756 0H34zM2.349 25.015v.657h-.845v2.792H.81v-2.792H0v-.657h2.349zm.568.852a1.79 1.79 0 011.538-.886c.32 0 .614.078.89.24.27.161.49.378.653.646.163.273.242.563.242.875 0 .317-.079.613-.242.88-.163.268-.377.48-.653.641-.27.156-.57.234-.89.234a1.775 1.775 0 01-1.538-.875 1.707 1.707 0 01-.236-.88 1.649 1.649 0 01.236-.875zm.614 1.427a1.08 1.08 0 00.946.546 1.024 1.024 0 00.912-.54 1.15 1.15 0 00.136-.558A1.115 1.115 0 005 25.778a1.008 1.008 0 00-.54-.145c-.198 0-.378.05-.541.145a1.115 1.115 0 00-.524.964c-.011.2.04.384.135.552zm5.435-1.967c.23.206.35.49.35.847 0 .206-.04.4-.12.58a.99.99 0 01-.393.44c-.18.116-.417.172-.704.172h-.49v1.092h-.687v-3.443h1.053c.428 0 .754.1.991.312zm-.558 1.292a.493.493 0 00.17-.206.554.554 0 00.05-.223.626.626 0 00-.107-.35c-.073-.112-.214-.173-.422-.173h-.49v1.036h.49a.463.463 0 00.31-.084zm5.171-1.604v.657h-.845v2.792h-.687v-2.792h-.811v-.657h2.343zm2.54 3.443l-.732-1.097h-.462v1.097h-.688v-3.443h1.054c.433 0 .766.105 1.002.312.237.206.355.49.355.847 0 .211-.045.412-.135.596a.986.986 0 01-.417.44l.811 1.248h-.788zm-1.194-1.75h.49c.186 0 .32-.055.405-.161a.553.553 0 00.13-.351.643.643 0 00-.107-.357c-.074-.111-.214-.172-.423-.172h-.495v1.042zm4.28 1.076H18.05l-.281.674h-.676l1.571-3.583h.04l1.571 3.583h-.794l-.276-.674zm-.225-.569l-.338-.835-.35.835h.688zm1.796-2.2h1.042c.445 0 .811.083 1.098.256.288.173.496.39.626.657.13.268.197.558.197.87 0 .329-.08.624-.237.875-.157.25-.371.445-.636.585a1.923 1.923 0 01-.879.206h-1.21v-3.45zM21.87 27.8c.355 0 .636-.09.845-.273.208-.179.31-.44.31-.78 0-.273-.057-.49-.175-.658a.903.903 0 00-.4-.334 1.175 1.175 0 00-.434-.095h-.557v2.14h.411zm4.932-2.785v.657h-1.69v.736h1.493v.657h-1.492v.747h1.751v.657h-2.438v-3.443h2.377v-.011zm2.653 3.443l-.732-1.097h-.456v1.097h-.687v-3.443h1.053c.433 0 .766.105 1.002.312.237.206.355.49.355.847 0 .211-.045.412-.135.596a.986.986 0 01-.417.44l.811 1.248h-.794zm-1.194-1.75h.49c.186 0 .321-.055.405-.161a.553.553 0 00.13-.351.644.644 0 00-.107-.357c-.073-.111-.214-.172-.422-.172h-.49v1.042h-.006zm3.627-1.108c-.152 0-.27.028-.355.089-.084.061-.124.15-.124.267 0 .112.062.207.18.29.125.084.282.162.485.234a2.1 2.1 0 01.422.206.943.943 0 01.293.318c.079.134.118.306.118.513a.92.92 0 01-.14.495 1 1 0 01-.412.363c-.18.089-.394.134-.641.134-.209 0-.417-.028-.62-.09a2.103 2.103 0 01-.575-.278l.305-.53c.118.09.259.162.41.218.153.055.294.083.417.083a.74.74 0 00.378-.089.319.319 0 00.163-.295c0-.179-.169-.335-.507-.463a4.347 4.347 0 01-.495-.223.996.996 0 01-.344-.306.846.846 0 01-.146-.507c0-.296.096-.535.293-.719.197-.178.461-.279.788-.295.26 0 .473.027.648.089.174.056.343.14.507.245l-.26.518c-.298-.184-.563-.267-.788-.267zM6.702 30.631l-1.588 3.606-1.588-3.606h.822l.794 1.945.749-1.945h.811zm2.979 0v.658h-1.69v.735h1.493v.658H7.992v.747h1.751v.657H7.305v-3.444H9.68v-.01zm3.909 0v3.583h-.017l-2.439-2.173.017 2.034h-.692v-3.583h.028l2.433 2.206-.017-2.073h.687v.006zm3.013 0v.658h-.845v2.792h-.687v-2.792h-.811v-.658h2.343zm1.374 2.486c.068.1.152.178.265.245a.735.735 0 00.726 0 .699.699 0 00.265-.245.594.594 0 00.096-.313v-2.173h.676v2.185c0 .245-.062.468-.192.668a1.28 1.28 0 01-.512.463 1.53 1.53 0 01-.71.167 1.53 1.53 0 01-.71-.167 1.305 1.305 0 01-.506-.463 1.234 1.234 0 01-.186-.668V30.63h.687v2.173c0 .106.034.212.101.313zm4.743.958l-.733-1.098h-.456v1.098h-.693v-3.444h1.053c.434 0 .766.106 1.008.312.237.207.355.49.355.847 0 .212-.045.413-.135.597-.09.184-.225.334-.411.44l.81 1.248h-.799zm-1.195-1.75h.49c.186 0 .321-.055.406-.161a.552.552 0 00.13-.351.643.643 0 00-.108-.357c-.073-.111-.214-.173-.422-.173h-.49v1.042h-.006zm4.934-1.694v.658h-1.69v.735h1.493v.658h-1.493v.747h1.758v.657h-2.44v-3.444h2.372v-.01zm1.847.585c-.152 0-.27.028-.355.09-.084.06-.124.15-.124.267 0 .111.062.206.18.29.124.083.282.161.485.234a2.1 2.1 0 01.422.206.944.944 0 01.293.318.997.997 0 01.118.512.92.92 0 01-.14.496 1 1 0 01-.412.362 1.42 1.42 0 01-.642.134c-.208 0-.416-.028-.619-.089a2.102 2.102 0 01-.575-.279l.305-.529c.118.09.259.162.41.217.153.056.294.084.418.084a.74.74 0 00.377-.09.319.319 0 00.163-.295c0-.178-.169-.334-.507-.462a4.323 4.323 0 01-.495-.223.995.995 0 01-.344-.306.846.846 0 01-.146-.508c0-.295.101-.534.293-.718.197-.179.461-.279.788-.296a1.95 1.95 0 011.155.335l-.26.518c-.304-.184-.568-.268-.788-.268z" fill="#fff"/></svg>