<svg width="91" height="24" viewBox="0 0 91 24" fill="none" xmlns="http://www.w3.org/2000/svg"><path d="M42.317 7.869v1.047h-1.345v4.446H39.87V8.916h-1.291V7.87h3.738zm.905 1.357c.25-.434.6-.772 1.03-1.029.431-.257.906-.382 1.417-.382s.977.125 1.416.382c.43.257.78.603 1.04 1.03.26.434.386.896.386 1.393 0 .506-.126.976-.386 1.402-.26.426-.6.763-1.04 1.02a2.79 2.79 0 01-1.416.373 2.827 2.827 0 01-2.447-1.393 2.72 2.72 0 01-.377-1.402 2.627 2.627 0 01.377-1.394zm.977 2.272c.152.267.358.48.627.64.26.159.556.23.879.23a1.63 1.63 0 001.452-.86c.143-.267.215-.56.215-.888 0-.329-.072-.63-.224-.897a1.822 1.822 0 00-.61-.639c-.26-.16-.546-.23-.86-.23-.314 0-.6.08-.86.23-.26.16-.467.373-.61.64a1.776 1.776 0 00-.224.896c-.018.32.063.612.215.878zm8.651-3.132c.367.328.555.78.555 1.349 0 .328-.063.639-.188.923a1.57 1.57 0 01-.628.7c-.286.187-.663.276-1.12.276h-.78v1.74h-1.093V7.868h1.676c.681 0 1.2.16 1.577.497zm-.888 2.059a.784.784 0 00.269-.329.884.884 0 00.08-.355.997.997 0 00-.17-.559c-.116-.177-.34-.275-.672-.275h-.78v1.65h.78a.736.736 0 00.493-.132zm8.228-2.556v1.047h-1.344v4.446h-1.093V8.916h-1.291V7.87h3.729zm4.044 5.484l-1.166-1.748h-.735v1.748H61.24V7.87h1.676c.69 0 1.22.169 1.596.497.376.328.564.78.564 1.349 0 .337-.071.656-.215.95a1.57 1.57 0 01-.663.7l1.29 1.988h-1.254zm-1.9-2.786h.78c.295 0 .51-.09.645-.258a.88.88 0 00.206-.559c0-.195-.054-.39-.17-.568-.117-.177-.341-.275-.673-.275h-.789v1.66zm6.812 1.713h-1.838l-.448 1.073h-1.076l2.501-5.706h.063l2.501 5.706h-1.264l-.44-1.074zm-.359-.906l-.538-1.331-.555 1.331h1.093zm2.86-3.505h1.658c.708 0 1.29.133 1.748.408.457.275.789.621.995 1.047.206.426.314.888.314 1.385 0 .523-.126.994-.377 1.393-.25.4-.591.71-1.013.932a3.06 3.06 0 01-1.398.328h-1.927V7.87zm1.739 4.437c.565 0 1.013-.142 1.344-.435.332-.284.493-.7.493-1.242 0-.435-.09-.781-.278-1.047a1.437 1.437 0 00-.636-.533 1.869 1.869 0 00-.69-.15h-.888v3.407h.655zm7.852-4.437v1.047h-2.69v1.171h2.376v1.048H78.55v1.189h2.788v1.047h-3.882V7.887h3.783v-.018zm4.222 5.484l-1.165-1.748h-.726v1.748h-1.094V7.87h1.676c.69 0 1.22.169 1.596.497.376.328.565.78.565 1.349 0 .337-.072.656-.215.95a1.571 1.571 0 01-.664.7l1.291 1.988H85.46zm-1.9-2.786h.78c.295 0 .51-.09.645-.258a.88.88 0 00.206-.559c0-.195-.054-.39-.17-.568-.117-.177-.34-.275-.672-.275h-.78v1.66h-.01zM89.333 8.8c-.242 0-.43.045-.565.143-.134.097-.197.24-.197.426 0 .177.098.328.287.461.197.133.448.258.77.373.26.097.485.204.673.328.188.124.34.293.466.506.126.213.188.488.188.816 0 .284-.072.542-.224.79-.152.24-.367.435-.654.577-.287.142-.628.213-1.022.213-.332 0-.663-.044-.986-.142a3.345 3.345 0 01-.915-.444l.485-.843c.188.142.412.258.654.346.242.09.466.133.663.133.233 0 .43-.044.6-.142a.508.508 0 00.26-.47c0-.284-.268-.532-.806-.736a6.858 6.858 0 01-.789-.355 1.584 1.584 0 01-.547-.488c-.152-.213-.233-.48-.233-.808 0-.47.153-.852.466-1.145.314-.284.736-.443 1.255-.47.413 0 .753.044 1.031.142.278.089.547.222.807.39l-.412.826c-.475-.293-.897-.426-1.255-.426zM40.03 16.814l-2.527 5.742-2.528-5.742h1.309l1.264 3.097 1.192-3.097h1.29zm4.742 0v1.047h-2.689v1.171h2.376v1.048h-2.376v1.189h2.788v1.047h-3.882v-5.484h3.783v-.018zm6.221 0v5.706h-.027l-3.881-3.46.027 3.238h-1.103v-5.706h.045l3.872 3.514-.026-3.3h1.093v.008zm4.797 0v1.047h-1.346v4.446h-1.093v-4.446h-1.29v-1.047h3.728zm2.186 3.958c.108.16.242.284.422.39.179.098.367.151.564.151.215 0 .413-.053.592-.15.18-.098.323-.231.421-.391a.947.947 0 00.153-.497v-3.461h1.075v3.479c0 .39-.098.745-.304 1.065a2.045 2.045 0 01-.816.736c-.34.178-.726.266-1.13.266-.403 0-.788-.088-1.129-.266a2.076 2.076 0 01-.807-.736 1.966 1.966 0 01-.296-1.065v-3.479h1.094v3.46c0 .17.054.338.161.498zm7.548 1.526l-1.165-1.748h-.726v1.748H62.53v-5.484h1.676c.69 0 1.22.169 1.605.497.376.328.564.78.564 1.349 0 .337-.071.657-.215.95a1.6 1.6 0 01-.654.7l1.29 1.988h-1.272zm-1.9-2.786h.78c.295 0 .51-.089.645-.258a.881.881 0 00.206-.559c0-.195-.054-.39-.17-.568-.117-.177-.34-.275-.673-.275h-.78v1.66h-.008zm7.852-2.698v1.047h-2.69v1.171h2.376v1.048h-2.375v1.189h2.796v1.047h-3.88v-5.484h3.773v-.018zm2.94.932c-.242 0-.43.044-.564.142-.135.097-.198.24-.198.426 0 .177.099.328.287.461.197.133.448.258.771.373.26.098.484.204.672.328.189.125.341.293.466.506.126.213.189.488.189.817 0 .284-.072.54-.224.79a1.6 1.6 0 01-.655.576c-.287.142-.627.213-1.022.213-.331 0-.663-.044-.986-.142a3.348 3.348 0 01-.914-.444l.484-.843c.188.142.412.258.654.346.242.09.467.134.664.134.233 0 .43-.045.6-.142a.508.508 0 00.26-.47c0-.285-.269-.533-.806-.737a6.875 6.875 0 01-.79-.355 1.584 1.584 0 01-.546-.488c-.152-.213-.233-.48-.233-.808 0-.47.161-.852.466-1.145.314-.284.735-.443 1.255-.47.412 0 .753.044 1.03.142.279.089.548.222.808.39l-.413.826c-.484-.293-.905-.426-1.255-.426zM6.84 7.59v15.485H3.711V10.537H0V7.59h6.84z" fill="#000"/><path d="M35.026 0l-10.52 23.79-5.931-13.253h-3.191v12.538h-3.127V10.537H7.753V7.59h13.26l3.623 8.731L31.314 0h3.712z" fill="url(#paint0_linear_60_2513)"/><defs><linearGradient id="paint0_linear_60_2513" x1="35.395" y1="7.136" x2="23.731" y2="12.586" gradientUnits="userSpaceOnUse"><stop offset="0" stop-color="#02CFFE"/><stop offset=".999"/></linearGradient></defs></svg>