<svg width="1920" height="4394" viewBox="0 0 1920 4394" fill="none" xmlns="http://www.w3.org/2000/svg"><mask id="mask0_0_226" style="mask-type:alpha" maskUnits="userSpaceOnUse" x="-13" y="0" width="1947" height="4394"><path fill="#C4C4C4" d="M-12.849 0h1946.7v4394h-1946.7z"/></mask><g mask="url(#mask0_0_226)"><g filter="url(#filter0_f_0_226)"><path d="M1154.07 530.583C188.777 259.553-57.606 875.136-58.452 990.599l-204.962-811.911 2530.064 26.029c-28.07 1434.443 109.28 4232.453-46.17 4135.143-194.3-121.64-462.21-427.98-486.02-956.58-19.28-427.98-389.79-912.2-293.75-1474.15 130.9-765.86 1045.11-1004.628-286.64-1378.547z" fill="#02CFFE" fill-opacity=".07"/></g><g filter="url(#filter1_f_0_226)"><path d="M-128.494 3192.16c651.477 809.78-.845 1297.46 0 1173.31h-126.297l-1381.149-621.1c28.06-1542.35 963-4738.745 1118.411-4634.116 194.264 130.787 234.334 618.412 253.608 1078.587 19.275 460.175 435.699 1012.919 480.842 1623.799 45.142 610.88-703.51 934.42-345.415 1379.52z" fill="#02CFFE" fill-opacity=".07"/></g></g><defs><filter id="filter0_f_0_226" x="-463.414" y="-21.312" width="2959.42" height="4563.64" filterUnits="userSpaceOnUse" color-interpolation-filters="sRGB"><feFlood flood-opacity="0" result="BackgroundImageFix"/><feBlend in="SourceGraphic" in2="BackgroundImageFix" result="shape"/><feGaussianBlur stdDeviation="100" result="effect1_foregroundBlur_0_226"/></filter><filter id="filter1_f_0_226" x="-1835.94" y="-1092.25" width="2254.83" height="5676.93" filterUnits="userSpaceOnUse" color-interpolation-filters="sRGB"><feFlood flood-opacity="0" result="BackgroundImageFix"/><feBlend in="SourceGraphic" in2="BackgroundImageFix" result="shape"/><feGaussianBlur stdDeviation="100" result="effect1_foregroundBlur_0_226"/></filter></defs></svg>