<svg width="768" height="1736" viewBox="0 0 768 1736" fill="none" xmlns="http://www.w3.org/2000/svg"><mask id="mask0_60_715" style="mask-type:alpha" maskUnits="userSpaceOnUse" x="-1" y="0" width="769" height="1736"><path fill="#C4C4C4" d="M-1 0h768.887v1735.5H-1z"/></mask><g mask="url(#mask0_60_715)"><g filter="url(#filter0_f_60_715)"><path d="M459.899 209.564C78.636 102.516-18.678 345.652-19.011 391.257l-80.955-320.68 999.3 10.28c-11.088 566.562 43.162 1671.693-18.235 1633.253-76.746-48.04-182.56-169.04-191.965-377.81-7.614-169.04-153.954-360.299-116.02-582.251 51.698-302.492 412.784-396.798-113.215-544.485z" fill="#02CFFE" fill-opacity=".1"/></g><g filter="url(#filter1_f_60_715)"><path d="M-46.676 1260.81c257.314 319.83-.334 512.46 0 463.42H-96.56l-545.513-245.32c11.085-609.177 380.357-1871.658 441.74-1830.333 76.728 51.657 92.555 244.254 100.167 426.01 7.613 181.754 172.088 400.073 189.918 641.35C107.582 957.216-188.113 1085-46.676 1260.81z" fill="#02CFFE" fill-opacity=".07"/></g></g><defs><filter id="filter0_f_60_715" x="-299.966" y="-129.424" width="1410.89" height="2044.51" filterUnits="userSpaceOnUse" color-interpolation-filters="sRGB"><feFlood flood-opacity="0" result="BackgroundImageFix"/><feBlend in="SourceGraphic" in2="BackgroundImageFix" result="shape"/><feGaussianBlur stdDeviation="100" result="effect1_foregroundBlur_60_715"/></filter><filter id="filter1_f_60_715" x="-842.073" y="-552.413" width="1132.6" height="2484.23" filterUnits="userSpaceOnUse" color-interpolation-filters="sRGB"><feFlood flood-opacity="0" result="BackgroundImageFix"/><feBlend in="SourceGraphic" in2="BackgroundImageFix" result="shape"/><feGaussianBlur stdDeviation="100" result="effect1_foregroundBlur_60_715"/></filter></defs></svg>