<svg width="768" height="644" fill="none" xmlns="http://www.w3.org/2000/svg"><g filter="url(#a)" fill="#02CFFE" fill-opacity=".2"><path d="M634.12 341.206a125.625 125.625 0 01-18.093 7.876c-31.951 10.949-79.685 9.988-106.247-13.638-43.114-38.417 6.545-82.98 40.42-104.686 21.365-13.638 42.345-29.196 66.597-36.304 24.445-7.107 53.894-3.841 70.446 15.367 18.286 21.514 14.051 54.936.193 79.523-11.934 21.897-30.989 40.145-53.316 51.862zM-14.002 453.543c-5.57-18.054-6.808-37.139-2.063-55.709 9.491-37.138 36.726-59.834 68.398-78.507 34.766-20.426 76.134-27.132 108.424-53.129 30.64-24.656 49.931-61.692 81.809-84.8 32.496-23.522 80.983-33.529 116.059-9.904 22.489 15.165 36.829 41.059 39.511 67.985 2.579 25.378-8.047 55.708-26.203 74.071-15.268 15.371-38.171 23.315-58.803 28.164-41.059 9.697-98.109 7.324-114.305 53.645-5.262 15.061-4.024 31.567-5.159 47.455-1.753 26.513-10.316 53.129-27.441 73.555-17.125 20.427-43.329 33.838-69.945 32.187-17.022-1.031-33.218-7.84-47.764-16.712-28.886-17.641-52.614-46.424-62.517-78.301z"/></g><path d="M645.169 193.269a90.313 90.313 0 002.301-3.492c6.984-10.635 18.016-27.778 30.238-27.46 2.937.158 5.714 1.111 8.492 2.063 4.444 1.587 8.81 3.333 13.095 5.317 15.873 7.54 29.762 21.032 42.778 32.54 8.65 7.698 20.238 12.143 30.476 17.619l61.357 25.395-34.769 35.664L781.241 313l-37.66-34.335c-6.985-8.333-16.746-15-25.08-21.905-2.46-1.984-4.92-4.047-7.777-5.317-3.969-1.746-8.413-2.064-12.699-2.619-19.126-2.381-45.237-10.08-58.65-24.921-8.492-9.365-.317-21.587 5.794-30.634z" fill="#fff" stroke="#222221" stroke-width=".5" stroke-miterlimit="10"/><path d="M600.169 186.205c-.079 1.429.556 2.778 1.588 3.969 1.666 1.984 3.333 4.047 5.079 6.031 4.524 5.476 4.762 13.73 10.238 18.492 2.778 2.46 6.349 3.889 9.841 5.238 3.492 1.349 7.064 2.699 10 5 .556.397 1.19.953 1.905.794.873-.159 1.27-1.111 1.508-1.984 1.111-4.207 1.19-8.334 1.031-12.619-.079-3.492.477-6.905.08-10.556-.873-7.857-4.127-15.238-8.413-21.825-2.222-3.492-4.841-6.825-8.016-9.524-3.571-2.936-6.825-4.603-11.507-4.444-2.302.079-4.683.714-6.508 2.222-3.016 2.619-3.492 7.064-4.365 10.952-.477 2.302-1.191 4.524-2.064 6.667a3.614 3.614 0 00-.397 1.587zm-16.508-45.555c-3.333.794-6.349 3.889-5.873 7.302.318 1.984 1.746 3.571 3.413 4.603 1.667 1.032 3.651 1.587 5.556 2.063 3.015.794 5.952 1.588 8.968 2.381 2.539.714 5.238 1.349 7.857 1.032 2.619-.318 5.317-1.984 6.032-4.524.317-1.032.238-2.222.079-3.254-1.032-5.079-4.683-6.587-9.127-6.984-5.635-.555-11.111-3.968-16.905-2.619z" fill="#fff" stroke="#222221" stroke-width=".5" stroke-miterlimit="10"/><path d="M646.915 231.126l46.031-13.651c4.921-1.508 7.222-6.429 5.079-11.032L645.327 94.222c-2.142-4.603-7.936-7.222-12.936-5.714l-46.031 13.65c-4.921 1.508-7.223 6.429-5.08 11.032l52.698 112.221c2.143 4.603 7.937 7.222 12.937 5.715z" fill="#000"/><path d="M646.28 227.554l49.126-14.603c2.857-.873 4.207-3.73 2.937-6.349L644.137 91.127c-1.27-2.699-4.603-4.127-7.46-3.334l-49.127 14.603c-2.857.873-4.206 3.731-2.936 6.35l54.205 115.475c1.27 2.698 4.604 4.206 7.461 3.333z" fill="#fff"/><path d="M610.09 101.206l8.333-2.46c.317-.08.476-.477.317-.794-.158-.317-.555-.476-.873-.397l-8.333 2.461c-.317.079-.476.476-.317.793.079.318.476.476.873.397zm13.333-3.968c.318-.08.476-.477.318-.794a.798.798 0 00-.873-.397c-.318.08-.477.476-.318.794a.798.798 0 00.873.397z" fill="#000"/><path d="M604.296 158.666c.635-.238.952-.873.714-1.508l-2.143-4.524c-.317-.635-1.111-.952-1.746-.793-.634.238-.952.873-.714 1.508l2.143 4.523c.317.635 1.111.953 1.746.794zm-10.079-21.587c.635-.238.952-.873.714-1.508l-6.508-13.889c-.317-.635-1.111-.952-1.746-.794-.635.239-.952.874-.714 1.508l6.508 13.889c.317.714 1.032 1.032 1.746.794z" fill="#A8DCA4"/><path d="M593.582 137.317c.635-.238.952-.873.714-1.508l-6.508-13.889c-.317-.635-1.111-.952-1.746-.793-.634.238-.952.873-.714 1.507l6.508 13.889c.238.635 1.032.953 1.746.794zm10.079 21.508c.635-.239.953-.873.714-1.508l-2.142-4.524c-.318-.635-1.111-.953-1.746-.794-.635.238-.953.873-.715 1.508l2.143 4.524c.318.635 1.111 1.032 1.746.794z" fill="#000"/><path d="M608.106 166.682c.635-.239.952-.873.714-1.508l-2.143-4.524c-.317-.635-1.111-.952-1.746-.794-.635.238-.952.873-.714 1.508l2.143 4.524c.317.714 1.111 1.032 1.746.794z" fill="#AFB3BC"/><path d="M607.471 166.92c.635-.238.952-.873.714-1.508l-2.143-4.524c-.317-.635-1.111-.952-1.746-.794-.635.238-.952.873-.714 1.508l2.143 4.524c.238.635 1.031.952 1.746.794z" fill="#000"/><path d="M637.867 222.078l59.524-17.619-51.746-110.237-59.523 17.619 51.745 110.237z" fill="#E4F9FF" stroke="#000" stroke-width=".5" stroke-miterlimit="10"/><path d="M637.788 223.745l-53.571-114.126c-1.587-3.413.079-7.064 3.73-8.175l47.698-14.127c3.651-1.11 7.936.794 9.524 4.207L698.74 205.65c1.587 3.412-.08 7.063-3.73 8.174l-47.698 14.127c-3.651 1.111-7.937-.794-9.524-4.206zm-49.286-120.872c-2.857.873-4.206 3.73-2.936 6.428l53.571 114.126c1.27 2.699 4.603 4.127 7.46 3.334l47.698-14.127c2.857-.873 4.207-3.73 2.937-6.429L643.661 92.079c-1.27-2.698-4.603-4.127-7.46-3.333l-47.699 14.127z" fill="#A8DCA4"/><path d="M638.82 223.824l-53.809-114.602c-1.35-2.937.079-6.032 3.174-6.984l47.857-14.207c3.095-.952 6.746.715 8.095 3.572l53.809 114.602c1.349 2.937-.079 6.032-3.174 6.984l-47.857 14.206c-3.095.953-6.746-.634-8.095-3.571zm-50.397-121.031c-2.857.873-4.127 3.651-2.857 6.27l53.809 114.602c1.27 2.619 4.524 4.127 7.381 3.254l47.857-14.206c2.857-.873 4.127-3.651 2.857-6.27L643.661 91.841c-1.27-2.619-4.524-4.127-7.381-3.254l-47.857 14.206z" fill="#A8DCA4"/><path d="M694.93 201.523l-57.063 17.38-48.809-102.776 57.143-17.381 48.729 102.777z" fill="#F9F9F9"/><path d="M633.185 197.237c-.318.159-.318.635-.318.635s-.396-.318-.793-.318c-1.032.08-1.111.953-.476 1.508.635.556 2.301.953 2.301.953s.873-1.191.873-1.984c0-.715-.793-1.35-1.587-.794z" fill="#E4F9FF"/><path d="M684.692 179.221l-57.936 17.619-23.571-50.476 57.777-17.698 23.73 50.555z" fill="#E4F9FF" stroke="#000" stroke-width=".5" stroke-miterlimit="10"/><path opacity=".2" d="M610.407 139.856c.715 1.429-.079 3.016-1.666 3.492-1.588.477-3.492-.238-4.207-1.666-.714-1.429.08-3.016 1.667-3.492 1.667-.556 3.571.238 4.206 1.666z" fill="#E4F9FF"/><path d="M657.867 120.333l-59.047 18.016-6.667-14.048 58.968-18.016 6.746 14.048z" fill="#fff" stroke="#C2C2C2" stroke-width=".25" stroke-miterlimit="10"/><path d="M621.945 125.831c.499-2.358-1.321-4.741-4.065-5.322-2.744-.582-5.374.859-5.874 3.217-.499 2.359 1.321 4.742 4.065 5.323 2.744.581 5.374-.859 5.874-3.218zm12.351-6.371c1.111 2.301-.159 4.762-2.699 5.555-2.619.794-5.555-.396-6.666-2.698-1.111-2.302.159-4.762 2.698-5.556 2.54-.793 5.556.397 6.667 2.699zm12.961-1.414c.499-2.359-1.321-4.742-4.065-5.323-2.744-.581-5.374.859-5.874 3.218-.499 2.358 1.321 4.741 4.065 5.323 2.745.581 5.374-.86 5.874-3.218zm12.356-6.285c1.111 2.302-.158 4.762-2.698 5.556-2.619.794-5.556-.397-6.667-2.699-1.111-2.301.159-4.761 2.699-5.555 2.539-.794 5.635.397 6.666 2.698zm-50.158 15.238c1.19 2.54-.159 5.318-3.016 6.191-2.857.873-6.19-.476-7.381-3.016-1.19-2.54.159-5.317 3.016-6.19 2.857-.873 6.19.476 7.381 3.015z" fill="#E4F9FF"/><path d="M611.121 129.301c.318.635 0 1.349-.714 1.508-.714.238-1.508-.08-1.825-.714-.318-.635 0-1.35.714-1.508.635-.238 1.508.079 1.825.714z" fill="#009FE3"/><path d="M653.105 207.237c.397.794-.079 1.667-.952 1.984-.953.317-1.984-.159-2.381-.952-.397-.794.079-1.667.952-1.985.952-.317 1.984.08 2.381.953zm1.27 2.222l-1.429-.794m-13.809 1.112l-1.111 1.984 1.111 2.301 1.19-.397-.555-1.19c-.159-.317.079-.635.397-.714.397-.08.793 0 .873.317l.555 1.191 1.111-.318-1.111-2.301-2.46-.873z" stroke="#2D2D2D" stroke-width=".5" stroke-miterlimit="10"/><path d="M662.946 203.427l1.032 2.223m-1.746-.794l2.46-.714" stroke="#000" stroke-width=".5" stroke-miterlimit="10"/><path d="M664.692 206.284l-.635.239c-1.031.317-2.142-.159-2.539-1.032l-.318-.556c-.397-.873.08-1.825 1.032-2.143l.635-.238c1.032-.317 2.143.159 2.54 1.032l.317.556c.397.873 0 1.825-1.032 2.142zm10.476-7.222c-.396.238-.476.794-.476.794s-.555-.397-1.032-.397c-1.349.08-1.428 1.191-.555 1.905.873.714 2.936 1.27 2.936 1.27s1.111-1.508 1.111-2.46c.08-1.032-.952-1.747-1.984-1.112z" stroke="#2D2D2D" stroke-width=".5" stroke-miterlimit="10"/><path d="M687.629 196.285c.238.555 0 1.111-.635 1.269-.635.159-1.27-.079-1.508-.634-.238-.556 0-1.112.635-1.27.555-.159 1.27.079 1.508.635zm2.143 2.142l-.159-.317c-.318-.635-1.111-.952-1.746-.714l-1.508.476c-.714.238-1.032.873-.714 1.508l.158.317 3.969-1.27z" fill="#2D2D2D"/><path d="M596.757 117.158l-.238-.079a.51.51 0 00-.477 0l-.158.079-.318.08-.159.079c-.158.08-.317.159-.317.318l-.079.238a.622.622 0 01-.318.317l-.238.08c-.317.079-.476.396-.317.634l.952 1.905a.756.756 0 00.794.318l3.095-.953c.317-.079.476-.397.317-.635l-.952-1.904a.756.756 0 00-.794-.318l-.238.08a3.82 3.82 0 01-.555-.239z" stroke="#2D2D2D" stroke-width=".5" stroke-miterlimit="10"/><path d="M597.629 118.825c.239.476 0 .952-.555 1.111-.556.159-1.111-.079-1.349-.556-.238-.476 0-.952.555-1.111.476-.158 1.111.08 1.349.556zm42.381-15l4.286-1.27-.953 3.73-1.19-1.666-2.143-.794zm2.143.794l2.143-2.064" stroke="#2D2D2D" stroke-width=".5" stroke-miterlimit="10"/><path d="M637.788 223.745l-53.571-114.126c-1.587-3.413.079-7.064 3.73-8.175l47.698-14.127c3.651-1.11 7.936.794 9.524 4.207L698.74 205.65c1.587 3.412-.08 7.063-3.73 8.174l-47.698 14.127c-3.651 1.111-7.937-.794-9.524-4.206zm-49.286-120.872c-2.857.873-4.206 3.73-2.936 6.428l53.571 114.126c1.27 2.699 4.603 4.127 7.46 3.334l47.698-14.127c2.857-.873 4.207-3.73 2.937-6.429L643.661 92.079c-1.27-2.698-4.603-4.127-7.46-3.333l-47.699 14.127z" stroke="#000" stroke-width=".5" stroke-miterlimit="10"/><path d="M738.343 199.142c-10.08-9.048-13.254-23.889-22.143-34.206l-2.381-2.619c-2.381-2.778-5.476-4.762-8.492-6.826-10.794-7.301-21.032-15.476-30.397-24.523-2.619-2.461-4.444-6.111-7.619-8.016-1.666-1.032-3.968-1.349-5.634-.238-.794.555-1.429 1.428-1.826 2.301-1.508 2.937-1.825 6.429-.873 9.524.794 2.619 2.381 4.841 3.968 7.064 6.27 8.571 20.794 15.634 22.064 27.063" fill="#fff"/><path d="M738.343 199.142c-10.08-9.048-13.254-23.889-22.143-34.206l-2.381-2.619c-2.381-2.778-5.476-4.762-8.492-6.826-10.794-7.301-21.032-15.476-30.397-24.523-2.619-2.461-4.444-6.111-7.619-8.016-1.666-1.032-3.968-1.349-5.634-.238-.794.555-1.429 1.428-1.826 2.301-1.508 2.937-1.825 6.429-.873 9.524.794 2.619 2.381 4.841 3.968 7.064 6.27 8.571 20.794 15.634 22.064 27.063" stroke="#222221" stroke-width=".5" stroke-miterlimit="10"/><path d="M620.328 206.681c.158-.079.238-.158.397-.238 2.857-1.984 5.714-4.682 6.031-8.174.159-1.588-.238-3.254-.952-4.683-.397-.873-.952-1.666-1.667-2.222-1.349-1.032-3.174-1.032-4.762-.556-2.698.794-4.365 2.778-6.587 4.286-1.984 1.349-4.127 2.857-4.841 5.159-.794 2.381.238 5.158 2.143 6.746 3.016 2.46 7.143 1.587 10.238-.318zm-20.794-46.507c.635-1.27 1.35-2.54 2.619-3.016 1.429-.476 2.937.159 4.127 1.032a10.259 10.259 0 013.969 5.952c.793 3.968-1.905 9.365-3.731 12.778-.555 1.031-1.19 2.063-2.222 2.619-1.746.873-3.889-.08-5.317-1.429-2.064-1.905-3.73-5.159-3.334-8.095.318-3.254 2.461-6.905 3.889-9.841z" fill="#fff" stroke="#222221" stroke-width=".5" stroke-miterlimit="10"/><path d="M615.487 187.078c4.126-5.952 3.888-16.19-3.254-18.888-1.112-.477-2.461-.635-3.572-.159-2.143.952-2.54 3.73-3.571 5.873-1.032 2.222-2.54 4.047-3.651 6.19-.714 1.27-1.349 2.619-1.587 3.968-.318 1.429-.159 2.937.555 4.207" fill="#fff"/><path d="M615.487 187.078c4.126-5.952 3.888-16.19-3.254-18.888-1.112-.477-2.461-.635-3.572-.159-2.143.952-2.54 3.73-3.571 5.873-1.032 2.222-2.54 4.047-3.651 6.19-.714 1.27-1.349 2.619-1.587 3.968-.318 1.429-.159 2.937.555 4.207m98.333 24.682a37.006 37.006 0 006.349 6.825" stroke="#222221" stroke-width=".5" stroke-miterlimit="10"/><path d="M607.867 168.745c-.158 1.27.318 2.619 1.191 3.572.873.873 1.746 1.269 1.19 2.539-.555 1.27-1.587 2.46-2.539 3.413-.159.159-.318.238-.476.317-.159.08-.397 0-.556 0-.476-.079-.952-.397-1.27-.714-.555-.556-.793-1.27-1.27-1.825m-3.095-18.175c-.476 1.429-.238 2.699.318 4.127.635 1.587-.635 2.54-1.588 3.81-.158.238-.396.476-.714.476-.159 0-.317-.08-.476-.238-.635-.476-.952-1.27-.952-2.064m21.507 27.064c0 1.984.476 3.095 1.111 4.999 0 .08.08.159 0 .239 0 .079-.079.079-.158.158-1.429.953-3.572 2.222-4.604.318-.476-.873-.873-1.905-1.031-2.937m55.714-47.936c-.556.318-.953.952-.873 1.587m-1.429-.635c1.429-.714 2.46-2.222 2.778-3.809m44.603 25.397c2.46 2.698 4.523 5.714 6.269 8.968m.715 1.508c1.031 2.063 1.984 4.047 3.016 6.111m-5.238-7.381c.317.555.634 1.19.952 1.746m-60.317-51.905c-.714 2.858-.397 5.953.873 8.651m.635 1.27c.317.873.714 1.667 1.27 2.46m-.874-4.523c.239.635.556 1.27.794 1.904m-37.38 59.206c-.239 2.619-1.667 5.08-3.81 6.508m19.603 19.762c2.302-.714 4.683-1.429 6.984-2.222m2.222-.635c.556-.159 1.111-.397 1.667-.556m-4.285 2.778l1.666-.238m14.762-38.333c.873-.556 1.905-.873 2.857-1.032m11.667-3.333c-3.016.793-6.032 1.666-9.048 2.46m-82.539-76.745c-1.27 1.27-1.349 3.571-.159 5m6.905 40.555c-.556.714-1.111 1.349-1.667 2.063m-.635 1.826a10.947 10.947 0 002.064-1.826m21.031 34.762c-1.428 0-2.857-.079-4.285-.079m5.555-10.238a6.198 6.198 0 01-.476 4.127m61.269 59.999c1.429.397 2.857.794 4.286 1.27" stroke="#222221" stroke-width=".5" stroke-miterlimit="10"/><path d="M710.349 87.683l-13.967-2.772a2.085 2.085 0 01-1.634-2.443L697.52 68.5a2.084 2.084 0 012.443-1.634l13.967 2.772a2.084 2.084 0 011.634 2.443l-2.772 13.967a2.084 2.084 0 01-2.443 1.634z" fill="#E4F9FF"/><path fill-rule="evenodd" clip-rule="evenodd" d="M710.744 75.712a1.386 1.386 0 00-.754-1.16c-.789-.395-4.136-1.06-4.136-1.06s-3.348-.663-4.228-.6a1.385 1.385 0 00-1.139.784c-.394.813-.749 2.602-.749 2.602s-.355 1.788-.301 2.69c.029.497.318.941.753 1.159.789.395 4.137 1.06 4.137 1.06s3.347.664 4.227.6a1.386 1.386 0 001.14-.784c.393-.813.748-2.601.748-2.601s.355-1.789.302-2.69zm-7.023 3.268l.664-3.345 2.344 2.204-3.008 1.141z" fill="#fff"/><path d="M581.437 56.273l-13.777 3.598a2.085 2.085 0 01-2.537-1.486l-3.598-13.777a2.085 2.085 0 011.486-2.536l13.777-3.598a2.085 2.085 0 012.537 1.486l3.598 13.777a2.086 2.086 0 01-1.486 2.536z" fill="#E4F9FF"/><path fill-rule="evenodd" clip-rule="evenodd" d="M574.185 54.73l-1.444-5.532 1.487-.389-.301-1.957-1.684.44-.247-.955c-.13-.497-.153-.776.542-.957l.93-.243-.498-1.907-1.487.389c-1.787.467-2.175 1.556-1.769 3.11l.299 1.145-1.114.291.498 1.906 1.114-.29 1.445 5.53 2.229-.582z" fill="#fff"/><path d="M663.443 39.337l-23.503-7.3a3.592 3.592 0 01-2.37-4.504l7.281-23.442a3.593 3.593 0 014.504-2.369l23.442 7.28a3.592 3.592 0 012.369 4.505l-7.28 23.442c-.591 1.902-2.602 2.96-4.443 2.388z" fill="#E4F9FF"/><path d="M657.412 18.364l.153-.622c.379-1.617 1.809-2.758 3.535-2.837.633-.022 1.609.254 2.188.625.225.152.62.548.885.876l.481.6.736-.003c.408.003.962-.03 1.224-.084.246-.047.452-.052.44-.014-.066.212-.749.792-1.258 1.07-.696.4-.562.496.609.45.699-.015.712-.012.514.186-.113.102-.633.418-1.167.69-.908.47-.969.532-1.147 1.106-.274.884-1.269 2.597-2.005 3.475-1.37 1.65-3.654 3.086-5.635 3.55-2.789.65-6.038.023-8.431-1.608-.797-.548-2.095-1.716-2.056-1.84.012-.038.486.055 1.049.216a7.354 7.354 0 003.614.112l.794-.19-.689-.502c-.976-.713-1.69-1.877-1.687-2.764.007-.285.036-.29.731-.074l.724.212-.519-.476c-.608-.585-1.077-1.4-1.206-2.123-.096-.522-.042-1.748.072-1.808.036-.03.274.126.541.318.76.578.895.538.56-.14-.637-1.236-.485-2.732.376-3.927l.397-.532.568 1.064c1.169 2.153 2.841 3.738 5.012 4.726l.597.268z" fill="#fff"/><path d="M633.643 57.195l-13.218-2.139a2.003 2.003 0 01-1.62-2.203l2.138-13.218a2.003 2.003 0 012.203-1.62l13.219 2.139a2.003 2.003 0 011.62 2.202l-2.139 13.219c-.129 1.037-1.101 1.75-2.203 1.62zm92.045-17.061l-13.019-3.1a2.027 2.027 0 01-1.467-2.346l3.1-13.019a2.027 2.027 0 012.347-1.467l13.018 3.1a2.026 2.026 0 011.467 2.347l-3.099 13.018a1.912 1.912 0 01-2.347 1.467zM611.195 250.918l-22.508 6.114c-1.785.438-3.615-.592-4.155-2.33l-6.114-22.508c-.437-1.785.592-3.614 2.33-4.154l22.509-6.115c1.784-.437 3.614.593 4.154 2.331l6.114 22.508c.587 1.841-.545 3.717-2.33 4.154z" stroke="#000" stroke-width=".5" stroke-miterlimit="10" stroke-linecap="round"/><defs><filter id="a" x="-114" y="63" width="908.441" height="580.693" filterUnits="userSpaceOnUse" color-interpolation-filters="sRGB"><feFlood flood-opacity="0" result="BackgroundImageFix"/><feBlend in="SourceGraphic" in2="BackgroundImageFix" result="shape"/><feGaussianBlur stdDeviation="47.5" result="effect1_foregroundBlur_302_299"/></filter></defs></svg>