<svg width="1686" height="990" fill="none" xmlns="http://www.w3.org/2000/svg"><g filter="url(#a)" fill="#02CFFE" fill-opacity=".2"><path d="M1327.53 582.445a151.25 151.25 0 01-21.74 9.461c-38.38 13.153-95.72 11.999-127.63-16.384-51.8-46.15 7.86-99.685 48.56-125.76 25.66-16.383 50.86-35.074 80-43.612 29.36-8.538 64.74-4.615 84.63 18.46 21.96 25.844 16.88 65.995.23 95.532-14.34 26.305-37.23 48.227-64.05 62.303zM349.005 771.039c-6.693-21.688-8.18-44.615-2.479-66.923 11.402-44.615 44.12-71.88 82.167-94.312 41.765-24.538 91.461-32.594 130.252-63.824 36.807-29.62 59.983-74.112 98.277-101.872 39.039-28.257 97.287-40.278 139.423-11.898 27.017 18.218 44.244 49.325 47.466 81.671 3.098 30.487-9.667 66.923-31.478 88.983-18.342 18.466-45.855 28.009-70.641 33.833-49.325 11.65-117.859 8.8-137.317 64.445-6.32 18.094-4.833 37.923-6.196 57.008-2.107 31.851-12.393 63.825-32.966 88.363-20.573 24.539-52.051 40.65-84.025 38.667-20.449-1.239-39.906-9.419-57.381-20.077-34.701-21.192-63.205-55.769-75.102-94.064z"/></g><path d="M323.877 734.835a175.988 175.988 0 004.501-6.829c13.659-20.799 35.234-54.326 59.138-53.705 5.743.31 11.175 2.173 16.608 4.035 8.692 3.105 17.229 6.519 25.611 10.4 31.043 14.745 58.206 41.132 83.662 63.639 16.918 15.056 39.58 23.748 59.603 34.458L693 836.5l-68 69.75L590 969l-73.654-67.151c-13.659-16.298-32.751-29.336-49.049-42.84-4.812-3.881-9.623-7.916-15.211-10.4-7.761-3.415-16.453-4.035-24.835-5.122-37.407-4.656-88.474-19.712-114.705-48.738-16.608-18.316-.621-42.219 11.331-59.914z" fill="#fff" stroke="#222221" stroke-width=".5" stroke-miterlimit="10"/><path d="M617 899.5c66.4-70.8 92.667-73.167 97.5-65.5l-42 84.5-120.5 71c-6-.5-1.4-19.2 65-90z" fill="#fff"/><path d="M235.868 721.021c-.155 2.794 1.087 5.432 3.105 7.761 3.259 3.88 6.519 7.916 9.934 11.796 8.847 10.71 9.313 26.853 20.023 36.166 5.432 4.811 12.417 7.605 19.247 10.244 6.829 2.639 13.814 5.277 19.557 9.779 1.087.776 2.328 1.862 3.725 1.552 1.708-.311 2.484-2.173 2.949-3.88 2.173-8.227 2.329-16.298 2.018-24.68-.155-6.83.931-13.504.155-20.644-1.707-15.366-8.071-29.802-16.453-42.685-4.346-6.829-9.468-13.348-15.677-18.626-6.984-5.743-13.348-9.002-22.506-8.692-4.501.155-9.158 1.397-12.728 4.346-5.898 5.122-6.829 13.815-8.537 21.42-.931 4.502-2.328 8.848-4.035 13.039-.466.931-.777 2.017-.777 3.104zm-32.285-89.095c-6.519 1.552-12.417 7.606-11.486 14.28.621 3.881 3.415 6.985 6.675 9.003 3.259 2.018 7.14 3.104 10.865 4.035 5.898 1.553 11.641 3.105 17.539 4.657 4.967 1.397 10.245 2.639 15.367 2.018 5.122-.621 10.399-3.881 11.796-8.848.621-2.017.466-4.346.156-6.363-2.018-9.934-9.158-12.883-17.85-13.66-11.021-1.086-21.731-7.76-33.062-5.122z" fill="#fff" stroke="#222221" stroke-width=".5" stroke-miterlimit="10"/><path d="M327.291 808.874l90.026-26.698c9.624-2.949 14.125-12.572 9.934-21.575L324.187 541.124c-4.191-9.002-15.522-14.125-25.3-11.175l-90.026 26.697c-9.624 2.949-14.125 12.572-9.934 21.575l103.064 219.477c4.191 9.003 15.522 14.125 25.3 11.176z" fill="#000"/><path d="M326.05 801.889l96.079-28.56c5.588-1.707 8.226-7.295 5.743-12.417L321.859 535.071c-2.484-5.278-9.003-8.072-14.591-6.519l-96.079 28.56c-5.588 1.707-8.227 7.295-5.743 12.417L311.459 795.37c2.484 5.277 9.003 8.226 14.591 6.519z" fill="#fff"/><path d="M255.271 554.783l16.297-4.811c.621-.156.932-.932.621-1.553-.31-.62-1.086-.931-1.707-.776l-16.298 4.812c-.621.155-.931.931-.621 1.552.156.621.932.932 1.708.776zm26.076-7.761c.621-.155.931-.931.621-1.552-.31-.621-1.087-.931-1.707-.776-.621.155-.932.932-.621 1.552.31.621 1.086.932 1.707.776z" fill="#000"/><path d="M243.94 667.16c1.242-.465 1.862-1.707 1.397-2.949l-4.191-8.847c-.621-1.242-2.173-1.863-3.415-1.552-1.242.465-1.862 1.707-1.397 2.949l4.191 8.847c.621 1.242 2.173 1.863 3.415 1.552zm-19.713-42.219c1.242-.465 1.863-1.707 1.397-2.949l-12.728-27.163c-.62-1.241-2.173-1.862-3.414-1.552-1.242.466-1.863 1.708-1.397 2.949l12.727 27.163c.621 1.397 2.018 2.018 3.415 1.552z" fill="#A8DCA4"/><path d="M222.986 625.407c1.241-.466 1.862-1.707 1.396-2.949l-12.727-27.163c-.621-1.242-2.173-1.863-3.415-1.552-1.242.465-1.863 1.707-1.397 2.949l12.728 27.163c.465 1.242 2.018 1.863 3.415 1.552zm19.712 42.064c1.242-.466 1.863-1.707 1.397-2.949l-4.191-8.848c-.621-1.241-2.173-1.862-3.415-1.552-1.241.466-1.862 1.708-1.397 2.949l4.191 8.848c.621 1.242 2.173 2.018 3.415 1.552z" fill="#000"/><path d="M251.39 682.837c1.242-.465 1.863-1.707 1.397-2.949l-4.191-8.847c-.621-1.242-2.173-1.863-3.414-1.552-1.242.465-1.863 1.707-1.397 2.949l4.19 8.847c.621 1.397 2.174 2.018 3.415 1.552z" fill="#AFB3BC"/><path d="M250.148 683.303c1.242-.466 1.863-1.707 1.397-2.949l-4.19-8.847c-.621-1.242-2.173-1.863-3.415-1.553-1.242.466-1.863 1.708-1.397 2.95l4.191 8.847c.465 1.242 2.018 1.862 3.414 1.552z" fill="#000"/><path d="M309.597 791.179l116.412-34.458-101.201-215.597-116.413 34.458 101.202 215.597z" fill="#E4F9FF" stroke="#000" stroke-width=".5" stroke-miterlimit="10"/><path d="M309.441 794.438L204.67 571.236c-3.104-6.674.155-13.814 7.295-15.987l93.286-27.629c7.14-2.173 15.521 1.553 18.626 8.227l104.771 223.202c3.104 6.674-.155 13.814-7.295 15.987l-93.286 27.629c-7.139 2.173-15.521-1.552-18.626-8.227zm-96.389-236.395c-5.588 1.707-8.227 7.295-5.743 12.572L312.08 793.818c2.484 5.277 9.003 8.071 14.591 6.519l93.285-27.629c5.588-1.707 8.226-7.295 5.743-12.572L320.927 536.933c-2.483-5.277-9.002-8.071-14.59-6.519l-93.285 27.629z" fill="#A8DCA4"/><path d="M311.459 794.594L206.222 570.46c-2.639-5.743.155-11.796 6.209-13.659l93.596-27.784c6.053-1.862 13.193 1.397 15.832 6.985l105.237 224.134c2.639 5.743-.155 11.796-6.209 13.659l-93.596 27.783c-6.053 1.863-13.193-1.241-15.832-6.984zm-98.563-236.706c-5.587 1.707-8.071 7.14-5.587 12.262l105.237 224.133c2.483 5.122 8.847 8.072 14.435 6.364l93.596-27.784c5.588-1.707 8.071-7.14 5.588-12.262L320.927 536.468c-2.483-5.122-8.847-8.072-14.435-6.364l-93.596 27.784z" fill="#A8DCA4"/><path d="M421.198 750.978L309.597 784.97l-95.459-201.006 111.756-33.992 95.304 201.006z" fill="#F9F9F9"/><path d="M300.439 742.596c-.621.31-.621 1.242-.621 1.242s-.776-.621-1.552-.621c-2.018.155-2.173 1.862-.932 2.949 1.242 1.086 4.502 1.863 4.502 1.863s1.707-2.329 1.707-3.881c0-1.397-1.552-2.639-3.104-1.552z" fill="#E4F9FF"/><path d="M401.175 707.362L287.866 741.82l-46.099-98.718 112.998-34.614 46.41 98.874z" fill="#E4F9FF" stroke="#000" stroke-width=".5" stroke-miterlimit="10"/><path opacity=".2" d="M255.892 630.374c1.397 2.794-.156 5.898-3.26 6.83-3.104.931-6.83-.466-8.227-3.26-1.396-2.794.156-5.898 3.26-6.83 3.26-1.086 6.985.466 8.227 3.26z" fill="#E4F9FF"/><path d="M348.711 592.191L233.23 627.425l-13.038-27.474 115.326-35.234 13.193 27.474z" fill="#fff" stroke="#C2C2C2" stroke-width=".25" stroke-miterlimit="10"/><path d="M278.456 602.944c.977-4.612-2.583-9.273-7.95-10.41-5.367-1.137-10.51 1.681-11.487 6.293-.977 4.613 2.582 9.274 7.949 10.41 5.368 1.137 10.511-1.68 11.488-6.293zm24.156-12.461c2.173 4.502-.311 9.313-5.278 10.865-5.122 1.553-10.865-.776-13.038-5.277s.311-9.313 5.278-10.865c4.967-1.552 10.865.776 13.038 5.277zm25.348-2.765c.977-4.613-2.582-9.273-7.95-10.41-5.367-1.137-10.51 1.681-11.487 6.293-.977 4.613 2.582 9.274 7.95 10.41 5.367 1.137 10.51-1.681 11.487-6.293zm24.166-12.291c2.173 4.502-.31 9.313-5.277 10.865-5.122 1.553-10.865-.776-13.039-5.277-2.173-4.501.311-9.313 5.278-10.865 4.967-1.552 11.02.776 13.038 5.277zm-98.097 29.802c2.328 4.967-.31 10.399-5.898 12.107-5.588 1.707-12.107-.931-14.436-5.898-2.328-4.967.311-10.4 5.899-12.107 5.588-1.708 12.107.931 14.435 5.898z" fill="#E4F9FF"/><path d="M257.289 609.73c.62 1.242 0 2.639-1.397 2.949-1.397.466-2.95-.155-3.57-1.397-.621-1.241 0-2.638 1.396-2.949 1.242-.465 2.95.155 3.571 1.397z" fill="#009FE3"/><path d="M339.398 762.153c.776 1.553-.155 3.26-1.862 3.881-1.863.621-3.881-.311-4.657-1.863-.776-1.552.155-3.259 1.863-3.88 1.862-.621 3.88.155 4.656 1.862zm2.484 4.346l-2.794-1.552m-27.008 2.173l-2.173 3.881 2.173 4.501 2.328-.776-1.086-2.328c-.311-.621.155-1.242.776-1.397.776-.156 1.552 0 1.707.621l1.087 2.328 2.173-.621-2.173-4.501-4.812-1.708z" stroke="#2D2D2D" stroke-width=".5" stroke-miterlimit="10"/><path d="M358.645 754.703l2.018 4.346m-3.415-1.552l4.812-1.397" stroke="#000" stroke-width=".5" stroke-miterlimit="10"/><path d="M362.06 760.291l-1.242.465c-2.018.621-4.191-.31-4.967-2.017l-.621-1.087c-.776-1.707.156-3.57 2.018-4.191l1.242-.465c2.018-.621 4.191.31 4.967 2.017l.621 1.087c.776 1.707 0 3.57-2.018 4.191zm20.489-14.125c-.777.466-.932 1.552-.932 1.552s-1.086-.776-2.018-.776c-2.638.155-2.793 2.328-1.086 3.725 1.707 1.397 5.743 2.484 5.743 2.484s2.173-2.949 2.173-4.812c.155-2.018-1.863-3.415-3.88-2.173z" stroke="#2D2D2D" stroke-width=".5" stroke-miterlimit="10"/><path d="M406.918 740.733c.465 1.087 0 2.173-1.242 2.484-1.242.31-2.483-.155-2.949-1.242-.466-1.086 0-2.173 1.242-2.483 1.086-.311 2.483.155 2.949 1.241zm4.191 4.191l-.311-.621c-.621-1.241-2.173-1.862-3.415-1.397l-2.949.932c-1.397.465-2.018 1.707-1.397 2.949l.311.621 7.761-2.484z" fill="#2D2D2D"/><path d="M229.194 585.982l-.466-.155a.99.99 0 00-.931 0l-.31.155-.621.155-.311.155c-.31.156-.62.311-.62.621l-.156.466a1.21 1.21 0 01-.621.621l-.465.155c-.621.155-.931.776-.621 1.242l1.863 3.725c.31.466.931.776 1.552.621l6.053-1.863c.621-.155.932-.776.621-1.241l-1.863-3.726c-.31-.465-.931-.776-1.552-.621l-.465.156c-.466-.156-.776-.311-1.087-.466z" stroke="#2D2D2D" stroke-width=".5" stroke-miterlimit="10"/><path d="M230.902 589.242c.465.931 0 1.862-1.087 2.173-1.087.31-2.173-.156-2.639-1.087-.465-.931 0-1.863 1.087-2.173.931-.31 2.173.155 2.639 1.087zm82.885-29.336l8.382-2.484-1.862 7.295-2.329-3.259-4.191-1.552zm4.191 1.552l4.191-4.036" stroke="#2D2D2D" stroke-width=".5" stroke-miterlimit="10"/><path d="M309.441 794.439L204.67 571.236c-3.104-6.674.155-13.814 7.295-15.987l93.286-27.629c7.14-2.173 15.521 1.553 18.626 8.227l104.771 223.202c3.104 6.674-.155 13.814-7.295 15.987l-93.286 27.629c-7.139 2.173-15.521-1.552-18.626-8.226zm-96.389-236.396c-5.588 1.707-8.227 7.295-5.743 12.572L312.08 793.818c2.484 5.277 9.003 8.071 14.591 6.519l93.285-27.629c5.588-1.707 8.226-7.295 5.743-12.572L320.928 536.933c-2.484-5.277-9.003-8.071-14.591-6.519l-93.285 27.629z" stroke="#000" stroke-width=".5" stroke-miterlimit="10"/><path d="M506.102 746.321c-19.713-17.695-25.922-46.72-43.306-66.898l-4.657-5.122c-4.656-5.433-10.71-9.314-16.608-13.349-21.109-14.28-41.132-30.267-59.448-47.962-5.122-4.812-8.692-11.952-14.901-15.677-3.259-2.018-7.761-2.639-11.02-.466-1.552 1.087-2.794 2.794-3.57 4.502-2.949 5.743-3.57 12.572-1.708 18.626 1.553 5.122 4.657 9.468 7.761 13.814 12.262 16.763 40.667 30.578 43.151 52.929" fill="#fff"/><path d="M506.102 746.321c-19.713-17.695-25.922-46.72-43.306-66.898l-4.657-5.122c-4.656-5.433-10.71-9.314-16.608-13.349-21.109-14.28-41.132-30.267-59.448-47.962-5.122-4.812-8.692-11.952-14.901-15.677-3.259-2.018-7.761-2.639-11.02-.466-1.552 1.087-2.794 2.794-3.57 4.502-2.949 5.743-3.57 12.572-1.708 18.626 1.553 5.122 4.657 9.468 7.761 13.814 12.262 16.763 40.667 30.578 43.151 52.929" stroke="#222221" stroke-width=".5" stroke-miterlimit="10"/><path d="M275.294 761.067c.31-.155.465-.311.776-.466 5.588-3.88 11.175-9.158 11.796-15.987.311-3.105-.465-6.364-1.862-9.158-.776-1.707-1.863-3.259-3.26-4.346-2.639-2.018-6.209-2.018-9.313-1.087-5.277 1.553-8.537 5.433-12.883 8.382-3.88 2.639-8.071 5.588-9.468 10.089-1.552 4.657.465 10.089 4.191 13.194 5.898 4.811 13.969 3.104 20.023-.621zm-40.667-90.957c1.242-2.484 2.638-4.967 5.122-5.899 2.794-.931 5.743.311 8.071 2.018a20.058 20.058 0 017.761 11.641c1.552 7.761-3.725 18.316-7.295 24.99-1.087 2.018-2.328 4.036-4.346 5.123-3.415 1.707-7.606-.156-10.4-2.794-4.035-3.726-7.295-10.089-6.519-15.832.621-6.364 4.812-13.504 7.606-19.247z" fill="#fff" stroke="#222221" stroke-width=".5" stroke-miterlimit="10"/><path d="M265.825 722.728c8.072-11.641 7.606-31.664-6.364-36.941-2.173-.932-4.811-1.242-6.984-.311-4.191 1.863-4.967 7.295-6.985 11.486-2.018 4.346-4.967 7.916-7.14 12.107-1.397 2.484-2.639 5.122-3.104 7.761-.621 2.794-.311 5.743 1.086 8.226" fill="#fff"/><path d="M265.825 722.728c8.072-11.641 7.606-31.664-6.364-36.941-2.173-.932-4.811-1.242-6.984-.311-4.191 1.863-4.967 7.295-6.985 11.486-2.018 4.346-4.967 7.916-7.14 12.107-1.397 2.484-2.639 5.122-3.104 7.761-.621 2.794-.311 5.743 1.086 8.226m192.314 48.273a72.473 72.473 0 0012.417 13.349" stroke="#222221" stroke-width=".5" stroke-miterlimit="10"/><path d="M250.924 686.873c-.31 2.484.621 5.122 2.329 6.985 1.707 1.707 3.415 2.483 2.328 4.967-1.087 2.483-3.104 4.812-4.967 6.674-.31.311-.621.466-.931.621-.311.155-.776 0-1.087 0-.931-.155-1.862-.776-2.483-1.397-1.087-1.086-1.552-2.483-2.484-3.57m-6.053-35.545c-.931 2.794-.466 5.278.621 8.072 1.241 3.104-1.242 4.967-3.105 7.45-.31.466-.776.931-1.397.931-.31 0-.62-.155-.931-.465-1.242-.932-1.862-2.484-1.862-4.036m42.063 52.929c0 3.881.932 6.054 2.173 9.779 0 .155.156.31 0 .465 0 .156-.155.156-.31.311-2.794 1.862-6.985 4.346-9.003.621-.931-1.708-1.707-3.725-2.018-5.743m108.963-93.751c-1.087.62-1.863 1.862-1.707 3.104m-2.794-1.242c2.794-1.397 4.811-4.346 5.432-7.45m87.232 49.669c4.812 5.278 8.848 11.176 12.262 17.54m1.397 2.949c2.018 4.036 3.881 7.916 5.899 11.952m-10.245-14.436c.621 1.087 1.242 2.329 1.863 3.415M354.144 606.16c-1.397 5.588-.776 11.641 1.707 16.919m1.242 2.483c.621 1.708 1.397 3.26 2.483 4.812m-1.707-8.847c.466 1.241 1.087 2.483 1.552 3.725m-73.107 115.792c-.466 5.122-3.26 9.934-7.45 12.728m38.338 38.649c4.502-1.397 9.158-2.794 13.659-4.346m4.346-1.242c1.087-.311 2.173-.776 3.26-1.087m-8.382 5.433l3.26-.466m28.87-74.97c1.708-1.086 3.725-1.707 5.588-2.017m22.817-6.519c-5.898 1.552-11.797 3.259-17.695 4.811M211.499 561.923c-2.483 2.484-2.638 6.985-.31 9.779m13.504 79.316c-1.087 1.397-2.173 2.639-3.26 4.036m-1.241 3.57c1.397-.932 2.793-2.173 4.035-3.57m41.133 67.985c-2.794 0-5.588-.156-8.382-.156m10.865-20.023c.621 2.639.311 5.588-.931 8.072M386.74 828.276c2.793.776 5.587 1.552 8.381 2.483" stroke="#222221" stroke-width=".5" stroke-miterlimit="10"/><path d="M1530.6 274.963c-10.9 4.586-22.18 8.799-33.95 9.915-5.83.495-13.14-.868-14.75-6.569-.99-3.718 1.24-7.559 3.59-10.534 10.17-12.517 25.29-19.705 39.91-26.521 8.18-3.842 32.35-8.18 36.56 4.09 4.96 14.004-22.31 25.777-31.36 29.619z" fill="#fff"/><path d="M1530.6 274.963c-10.9 4.586-22.18 8.799-33.95 9.915-5.83.495-13.14-.868-14.75-6.569-.99-3.718 1.24-7.559 3.59-10.534 10.17-12.517 25.29-19.705 39.91-26.521 8.18-3.842 32.35-8.18 36.56 4.09 4.96 14.004-22.31 25.777-31.36 29.619z" stroke="#000" stroke-width=".5" stroke-miterlimit="10" stroke-linecap="round"/><path d="M1520.81 281.779a11.45 11.45 0 011.37 5.453c.12 5.825-1.24 11.402-2.61 16.979-1.36 5.701-3.22 13.632-9.54 15.491-3.1.868-6.32 1.488-9.54 1.735-3.72.372-7.68.124-10.91-1.858-3.09-1.983-4.95-6.445-3.09-9.667 1.23-2.107 3.59-3.222 5.32-4.71 4.09-3.594 5.21-9.294 6.57-14.5 1.74-6.692 6.69-10.162 11.16-14.871.37-.372.74-.868 1.24-1.116 1.48-.743 3.34.124 4.58 1.24 2.36 1.487 4.21 3.47 5.45 5.824zm-149.95-37.427c3.22-6.32 8.67-11.03 14.74-14.5 6.94-4.09 13.89-7.684 21.32-10.782 2.73-1.115 5.7-2.231 8.68-1.611 2.97.62 5.2 2.974 6.94 5.453 2.1 3.098 3.59 6.692 4.71 10.41 1.11 3.594 1.24 7.684 2.47 11.154 2.85 7.808 4.84 14.996 3.6 23.423-.37 2.85-.99 5.701-2.23 8.303-2.23 4.71-5.95 8.428-9.67 11.898-3.35 3.098-6.82 6.32-11.03 8.303-3.72 1.735-7.93 2.603-12.02 2.975-13.76 1.239-28.13-1.859-39.04-10.287-5.95-4.585-3.22-12.641-.62-18.094 3.97-8.923 7.81-17.846 12.15-26.645z" fill="#fff"/><path d="M1346.07 422.318c-3.59 3.222-6.94 6.692-9.91 10.41-2.85 3.47-5.33 7.064-8.18 10.41a104.542 104.542 0 01-14.01 13.633c-4.71 3.842-8.05 9.79-11.77 14.624-8.8 11.03-18.47 21.564-28.88 31.23-2.6 2.355-5.2 4.71-8.18 6.445-3.22 1.735-6.81 2.726-10.41 3.346-5.57.867-11.27.991-16.73.124-12.39-1.983-23.79-8.18-34.45-14.872-5.7-3.594-11.4-7.312-16.48-11.649-3.23-2.727-6.2-5.825-8.18-9.543-2.23-4.214-4.22-10.534-3.84-15.368.37-4.337 3.09-9.419 4.83-13.508 4.21-10.039 9.91-19.457 16.85-27.761 16.73-20.077 39.79-33.337 61.23-47.714 20.82-13.88 41.02-28.256 59.36-45.235 7.93-7.435 15.99-13.012 19.95-23.67 1.98-5.33 2.73-10.906 4.71-16.235 2.23-6.073 5.83-11.526 9.42-16.979 2.97-4.462 5.95-8.923 8.92-13.385 4.96-7.56 10.04-15.119 17.23-20.572 1.36-1.116 2.97-2.107 5.08-.868.99.62 1.74 1.611 1.98 2.727 1.99 6.32.75 16.359.25 22.803-.62 8.18-1.98 16.235-2.11 24.415-.12 7.435 1.12 13.384 3.6 20.2 2.6 7.312 3.34 15.368 5.08 22.928 2.6 10.906 7.44 20.077 16.36 27.017 8.43 6.568 19.21 0 28.38-2.479 3.1-.867 7.68-1.115 10.29-3.098 2.47-1.859 4.7-5.825 6.56-8.304 2.85-3.965 11.53-15.739 17.35-9.047.87.992 1.37 2.107 1.62 3.347 1.36 5.205 5.57 17.97 1.23 23.175-1.48 1.735-3.47 3.098-5.45 4.337-11.9 7.56-25.03 13.137-37.67 19.458-8.06 4.089-16.86 6.444-25.53 8.675-8.55 2.107-18.1 3.594-25.66 8.179-11.28 6.445-22.8 13.633-32.84 22.804z" fill="#fff"/><path d="M1498.38 316.604c1.74 6.445.62 13.385-.37 19.953-.37 2.727-.87 5.577-2.6 7.808-1.37 1.735-3.47 2.85-5.58 3.718-5.2 1.983-11.15 2.354-16.61 1.115-3.84-.867-7.93-2.974-8.79-6.816-.5-2.479.37-4.957 1.36-7.188 1.61-3.842 3.1-7.808 4.71-11.65 2.72-6.816 6.81-15.987 14.5-18.713 6.69-2.479 12.02 6.444 13.38 11.773z" fill="#fff"/><path d="M1400.97 381.792l-61.22-42.88c-6.57-4.586-7.44-13.013-1.98-18.838l133.35-139.547c5.45-5.701 15.24-6.692 21.93-1.983l61.23 42.881c6.56 4.585 7.43 13.013 1.98 18.837l-133.48 139.547c-5.45 5.701-15.24 6.692-21.81 1.983z" fill="#000"/><path d="M1403.57 376.835l-65.31-45.855c-3.84-2.726-4.33-7.56-1.11-10.906l137.31-143.636c3.23-3.347 8.8-3.842 12.64-1.24l65.32 45.855c3.84 2.726 4.33 7.56 1.11 10.906l-137.31 143.636c-3.1 3.347-8.8 3.966-12.65 1.24z" fill="#fff"/><path d="M1519.7 208.164l-11.16-7.808c-.49-.371-.49-.867-.12-1.363.37-.372 1.12-.496 1.49-.124l11.15 7.808c.5.372.5.867.13 1.363-.38.372-1.12.496-1.49.124zm-17.85-12.517c-.49-.372-.49-.868-.12-1.363.37-.372 1.11-.496 1.49-.124.49.372.49.867.12 1.363-.37.372-.99.496-1.49.124z" fill="#000"/><path d="M1499.62 295.908c-.87-.62-.99-1.736-.25-2.603l5.46-5.701c.74-.743 2.1-.867 2.97-.248.87.62.99 1.735.25 2.603l-5.45 5.701c-.75.743-1.99.867-2.98.248zm25.66-26.77c-.87-.619-1-1.735-.25-2.602l16.48-17.227c.74-.743 2.11-.867 2.98-.248.86.62.99 1.735.24 2.603l-16.48 17.226c-.74.744-2.11.868-2.97.248z" fill="#009FE3"/><path d="M1526.14 269.758c-.86-.62-.99-1.735-.24-2.603l16.48-17.226c.74-.744 2.1-.868 2.97-.248.87.62.99 1.735.25 2.603l-16.48 17.226c-.75.744-2.11.868-2.98.248zm-25.53 26.769c-.86-.619-.99-1.735-.24-2.602l5.45-5.701c.74-.744 2.11-.868 2.97-.248.87.62.99 1.735.25 2.602l-5.45 5.701c-.75.744-2.11.868-2.98.248z" fill="#000"/><path d="M1490.08 305.946c-.87-.62-.99-1.735-.25-2.603l5.45-5.7c.75-.744 2.11-.868 2.98-.248.87.619.99 1.735.25 2.602l-5.46 5.701c-.74.744-2.1.868-2.97.248z" fill="#AFB3BC"/><path d="M1490.95 306.566c-.87-.62-.99-1.735-.25-2.603l5.45-5.701c.75-.743 2.11-.867 2.98-.248.86.62.99 1.735.24 2.603l-5.45 5.701c-.74.743-2.11.867-2.97.248z" fill="#000"/><path d="M1418.69 372.993l-79.19-55.645 131.12-137.069 79.07 55.522-131 137.192z" fill="#E4F9FF"/><path d="M1401.84 376.959l-63.33-44.492c-4.83-3.47-5.45-9.666-1.49-13.88l135.58-141.902c4.09-4.213 11.28-4.957 16.12-1.487l63.45 44.492c4.83 3.47 5.45 9.666 1.49 13.88l-135.59 141.902c-4.08 4.213-11.4 4.957-16.23 1.487zm85.39-200.15c-3.84-2.726-9.54-2.107-12.64 1.24L1338.88 319.95c-3.22 3.346-2.72 8.18 1.12 10.906l63.45 44.492c3.84 2.726 9.54 2.106 12.64-1.24l135.71-141.901c3.22-3.346 2.72-8.18-1.12-10.906l-63.45-44.492z" fill="#009FE3"/><path d="M1402.71 376.339l-63.7-44.739c-4.09-2.851-4.71-8.18-1.24-11.774l136.2-142.521c3.47-3.594 9.66-4.214 13.75-1.239l63.71 44.739c4.08 2.85 4.7 8.18 1.23 11.774L1416.46 375.1c-3.47 3.594-9.66 4.213-13.75 1.239zm84.52-199.778c-3.72-2.602-9.3-2.106-12.52 1.116l-136.2 142.521c-3.1 3.222-2.6 8.056 1.12 10.658l63.7 44.74c3.71 2.602 9.29 2.106 12.51-1.116l136.2-142.521c3.1-3.222 2.61-8.056-1.11-10.658l-63.7-44.74z" fill="#000"/><path opacity=".5" d="M1410.64 357.749l-53.79-37.799c-2.6-1.859-2.97-5.329-.74-7.683 1.86-1.983 5.08-2.355 7.31-.744l53.79 37.799c2.6 1.859 2.97 5.329.74 7.684-1.86 1.983-5.08 2.231-7.31.743z" fill="#fff"/><path d="M1516.35 276.698c-.49-.372-1.11-.743-1.61-.991-4.34-2.851-8.8-5.453-13.38-7.932-3.47-1.859-7.19-5.453-11.53-4.09-2.73.868-4.34 3.718-4.96 6.569-.99 5.205 1 10.658 4.22 14.748 3.34 4.337 8.42 6.692 12.76 9.79.13.124.25.124.25.248.12.124 0 .372-.12.496-.87 1.735-4.47 7.064-5.58 8.675-1.36 1.859 1.98.248 4.59-.496 2.23-.619 3.59-.495 5.94-.124 2.85.496 7.44-.991 9.79-2.478 1.37-.868 2.61-1.983 3.23-3.346 2.35-5.082 3.59-13.757-.38-18.342-.86-.992-1.98-1.859-3.22-2.727zm-44.98 23.175c-3.23-.867-6.57-1.735-9.8-2.602-1.36-.372-2.72-.744-4.08-.248-1.49.496-2.48 1.859-3.1 3.222-2.11 4.834-.37 10.782 3.1 14.748 3.47 4.09 8.3 6.568 13.26 8.675 5.08 2.231 11.65 4.834 12.26 7.436.5 1.983 3.6-2.107 5.09-3.594 4.46-4.461 13.5-15.367 6.19-20.944-3.84-2.975-11.15-3.47-15.86-4.71-2.36-.743-4.71-1.363-7.06-1.983zm-15.62 26.77c-1.98-.372-3.84-.62-5.82-.992-6.08-.867-15 .372-15.12 8.427 0 2.975 1.73 5.701 3.96 7.56s4.96 3.099 7.69 4.214c3.34 1.487 8.55 2.479 10.9 5.577 2.85 3.718 3.1 9.047 9.05 9.419 3.1.124 6.07-1.983 7.56-4.71 1.49-2.726 1.86-5.948 1.86-9.171 0-4.585-.87-9.294-3.1-13.384-2.23-4.338-12.64-6.197-16.98-6.94zm-53.17-75.97c-2.23 1.735-4.33 3.594-6.44 5.576-.62.62-1.49 1.24-2.36.992-.49-.248-.86-.744-1.11-1.239-2.48-4.586-4.34-9.419-5.45-14.5-.87-4.09-2.98-10.535 1.11-13.261 4.46-3.098 10.16-5.081 15.12-7.312 5.45-2.479 11.15-4.338 16.73-6.568 5.08-1.983 10.66-.62 15.99-.124 4.34.371 8.67.743 12.89.124 5.33-.744 11.65-2.231 14.87 3.47 1.73 3.098 1.49 6.94 0 10.162-1.49 3.222-4.09 5.701-7.06 7.684-7.32 4.957-16.86 6.32-25.41 3.966-1.74-.496-3.35-1.116-5.08-1.116-3.22 0-7.93 2.231-10.78 3.718-4.59 2.107-9.05 5.205-13.02 8.428z" fill="#fff"/><path d="M1470.99 323.668c3.47 1.735 6.2 2.479 9.92 3.346m-25.9-27.884c-.75 1.363.12 3.346.99 4.585.87 1.24 2.35 1.983 3.72 2.727h.12c3.84 1.735 8.55-.372 9.79-4.462.12-.619.37-1.115.5-1.735m-16.11 27.141c.12 2.975-1.74 5.825-4.47 6.94-2.72 1.116-6.07.372-8.05-1.859m62.21-62.833c-.37 2.231-2.48 3.718-4.71 4.09-2.23.248-4.46-.62-6.19-1.983-1.74-1.363-2.98-3.222-4.22-5.081m8.68 25.034a68.004 68.004 0 008.3 4.709m-43-80.307c-2.73.743-5.46 1.487-8.31 1.487-2.85 0-5.7-.868-7.68-2.851" stroke="#000" stroke-width=".5" stroke-miterlimit="10"/><path d="M1499.25 321.437c.5 0 .87 0 1.36-.123 3.23-.248 6.45-.868 9.55-1.736 6.32-1.858 8.18-9.79 9.54-15.491 1.36-5.577 2.73-11.154 2.6-16.979 0-.247 0-.495-.12-.743v-.744c-.25-2.354-.99-4.585-2.48-6.196-.5-.496-.99-.992-1.49-1.364-4.96-4.213-11.03-7.188-16.73-10.286-3.47-1.859-7.19-5.453-11.52-4.09-2.73.868-4.34 3.718-4.96 6.569-.99 5.205.99 10.658 4.21 14.748 2.36 3.098 5.7 5.205 8.92 7.312" stroke="#000" stroke-width=".5" stroke-miterlimit="10" stroke-linecap="round"/><path d="M1498.13 336.557c1.24-8.179 1.86-17.846-.99-25.778-1.24-3.346-4.09-5.948-7.8-6.444-3.6-1.116-7.81-1.611-10.91-2.479-2.36-.619-4.71-1.239-7.06-1.859-3.23-.867-6.57-1.735-9.8-2.602-1.36-.372-2.72-.744-4.08-.248-1.49.496-2.48 1.859-3.1 3.222-2.11 4.833-.37 10.782 3.1 14.748 3.47 3.966 8.17 6.444 13.01 8.551-1.49 3.842-3.1 7.684-4.59 11.402-.99 2.355-1.86 4.833-1.36 7.188.87 3.842 4.96 5.949 8.8 6.816a29.268 29.268 0 0016.61-1.115c2.1-.744 4.21-1.859 5.57-3.718 1.61-2.107 2.11-4.957 2.6-7.684z" stroke="#000" stroke-width=".5" stroke-miterlimit="10" stroke-linecap="round"/><path d="M1455.75 326.643c-3.84-.744-7.81-1.116-11.77-1.735-1.37-.248-2.85-.372-4.22 0-1.86.619-3.1 2.23-3.84 3.965-1.86 4.71-.99 9.419 2.98 12.765 2.23 1.859 4.95 3.099 7.68 4.214 3.35 1.487 8.55 2.479 10.91 5.577 2.85 3.718 3.09 9.047 9.04 9.419 3.1.124 6.07-1.983 7.56-4.71 1.49-2.726 1.86-5.948 1.86-9.171 0-4.585-.87-9.295-3.1-13.384-2.35-4.338-12.76-6.197-17.1-6.94z" fill="#fff"/><path d="M1473.97 356.014c1.49-2.726 1.86-5.948 1.86-9.171 0-4.585-.87-9.294-3.1-13.384-2.36-4.214-12.77-6.073-17.1-6.94-4.34-.744-8.68-1.611-13.14-1.983-.87-.124-1.74-.124-2.48.124-1.36.372-2.48 1.363-3.22 2.602-1.24 1.859-1.98 4.462-1.98 6.816 0 2.975 1.73 5.701 3.96 7.56s4.96 3.099 7.69 4.214m25.77 13.137c-1.48 1.735-2.35 2.354-4.33 3.594-11.9 7.56-25.04 13.136-37.68 19.457-13.51 6.816-29.62 9.419-43.87 14.128-13.76 4.462-24.66 13.261-35.45 22.927-23.54 21.069-42.75 46.351-63.57 70.022m-77.96-79.316c6.08 0 21.57-16.235 26.65-20.201 9.42-7.064 18.84-14.252 28.26-21.316 17.97-13.633 36.43-26.522 53.04-41.889 7.93-7.436 15.99-13.013 19.95-23.671 1.98-5.329 2.73-10.906 4.71-16.235 2.23-6.073 5.83-11.526 9.42-16.979 2.97-4.461 5.95-8.923 8.92-13.384 4.96-7.56 10.04-15.12 17.23-20.573m9.79-6.197c.74-.495 1.61-.867 2.35-1.363.13-.124.25-.248.38-.248 2.47-1.611 5.33-2.974 8.3-4.213 3.22-1.612 6.44-3.099 9.79-4.338 1.36-.62 2.85-1.115 4.34-1.363 2.85-.992 5.82-2.107 8.67-3.223 4.96-1.982 10.41-.495 15.62 0 4.21.372 8.43.744 12.64.248 5.2-.743 11.4-2.106 14.62 3.347 1.74 2.974 1.49 6.692 0 9.79-2.72 5.701-9.04 9.791-14.87 11.65-4.96 1.611-10.16 1.115-15.49.743-4.09-.248-7.68-2.107-11.77-1.611" stroke="#000" stroke-width=".5" stroke-miterlimit="10" stroke-linecap="round"/><path d="M1446.21 345.604c4.21 2.107 8.8 4.214 13.38 3.346m-8.18-23.175a46.408 46.408 0 01-1.24 3.966c-.24.867-.62 1.611-1.11 2.355-.87 1.115-2.48 1.611-3.97 1.735-3.34.247-6.44-1.24-9.42-2.727" stroke="#000" stroke-width=".5" stroke-miterlimit="10"/><path d="M1427.99 236.42c-3.84 1.612-7.56 3.223-11.4 4.71" stroke="#000" stroke-width=".5" stroke-miterlimit="10" stroke-linecap="round"/><path d="M1375.19 396.416c-2.72 1.611-5.45 3.098-8.17 4.709m-5.58 3.471c-7.19 4.957-13.88 10.658-20.08 16.73m24.79-23.175c-2.11.868-4.22 1.983-5.95 3.47m-41.52-68.038c-3.47 2.726-6.81 5.453-10.28 8.179m184.41-31.726a9.496 9.496 0 012.6 8.551m-110.92-87.372c-1.12.744-2.23 1.487-3.35 2.231m1.49 3.594c-3.22 1.735-6.2 3.966-8.8 6.445m-2.73 2.726c-.61.744-1.23 1.487-1.98 2.107m77.71-31.603c1.24.868 2.6 1.364 4.09 1.611" stroke="#222221" stroke-width=".5" stroke-miterlimit="10"/><path d="M1519.57 282.895c-1.11.495-2.1 1.115-2.97 1.859m2.97 0c-.61.248-1.23.619-1.73 1.115m-22.43 35.321v2.354m-138.19 79.812c-.62.372-1.11.868-1.73 1.24m66.67-42.385l5.58-5.949m-83.9-33.709c3.35 2.355 6.69 4.709 9.91 7.064m1.86 1.363c.62.744 1.49 1.24 2.23 1.735m-6.94-2.85c.75.619 1.62 1.115 2.36 1.735m196.43-108.192c1.12.991 2.35 2.106 2.48 3.47.25 1.487-.74 2.85-1.61 4.089" stroke="#000" stroke-width=".5" stroke-miterlimit="10" stroke-linecap="round"/><path d="M294.079 367.023l-28.978 17.702a4.972 4.972 0 01-6.815-1.646l-17.702-28.978c-1.421-2.327-.68-5.393 1.646-6.815l28.979-17.702c2.326-1.421 5.393-.68 6.814 1.646l17.702 28.979c1.316 2.391.681 5.393-1.646 6.814z" fill="#E4F9FF"/><path d="M267.128 354.943l-.355-.805c-.94-2.079-.339-4.518 1.475-6.049.671-.554 1.964-1.071 2.906-1.151.372-.024 1.133.077 1.697.212l1.025.251.799-.62c.446-.338 1.023-.837 1.262-1.117.229-.257.449-.434.468-.383.105.285-.153 1.489-.474 2.219-.423 1.017-.197 1.01 1.04-.021.748-.602.765-.608.715-.227-.038.205-.339.986-.693 1.728-.596 1.271-.609 1.391-.322 2.164.441 1.193.792 3.891.727 5.463-.11 2.945-1.394 6.42-3.164 8.584-2.491 3.043-6.554 5.082-10.525 5.309-1.326.071-3.718-.114-3.78-.282-.018-.051.576-.347 1.324-.643a10.105 10.105 0 004.028-2.905l.705-.872-1.169.031c-1.66.042-3.412-.628-4.152-1.597-.231-.316-.203-.345.734-.692l.965-.376-.963-.083c-1.152-.128-2.344-.623-3.091-1.302-.542-.487-1.51-1.868-1.436-2.029.015-.062.404-.092.856-.106 1.311-.008 1.424-.164.493-.622-1.729-.812-2.817-2.569-2.879-4.59l-.014-.912 1.509.683c3.076 1.365 6.224 1.69 9.415.949l.874-.209z" fill="#fff"/><path d="M146.378 514.101l-43.96-20.24c-3.53-1.625-5.088-5.843-3.463-9.372l20.24-43.961c1.625-3.53 5.842-5.088 9.372-3.463l43.96 20.24c3.53 1.625 5.088 5.843 3.463 9.372l-20.24 43.961c-1.625 3.529-5.842 5.088-9.372 3.463z" fill="#E4F9FF"/><path fill-rule="evenodd" clip-rule="evenodd" d="M131.278 468.054c-3.089-.061-6.262-.124-9.291.095-1.687.343-.311 1.768.98 3.105.205.213.408.423.597.626.166.149.334.302.504.458 1.493 1.363 3.158 2.882 5.287 2.729 3.528-.318 7.014-.959 10.497-1.599 1.142-.21 2.283-.419 3.425-.618l.177-.025c.959-.139 3.116-.451 1.818.75-2.184.92-4.388 1.61-6.604 2.304-1.494.468-2.992.937-4.494 1.48-1.237.316-2.848 1.357-2.312 2.844 1.573 2.694 3.2 5.364 4.826 8.034.529.868 1.059 1.736 1.586 2.606.82 1.632 3.232 1.727 4.261.241l1.409-2.057c2.597-3.788 5.195-7.578 7.716-11.418.382-.608.776-1.211 1.17-1.814.954-1.463 1.91-2.927 2.709-4.471.538-1.66-1.53-2.193-2.756-2.328-6.417-.436-12.85-.694-19.281-.902-.734-.01-1.477-.025-2.224-.04z" fill="#fff"/><path d="M275.41 481.712l-25.283-4.089c-1.982-.372-3.346-2.231-3.098-4.214l4.09-25.282c.372-1.983 2.231-3.346 4.214-3.098l25.282 4.089c1.983.372 3.346 2.231 3.098 4.214l-4.09 25.282c-.248 1.983-2.107 3.346-4.213 3.098zM142.221 672.94l-21.28 14.25c-1.704 1.08-3.969.65-5.14-.969l-14.249-21.281c-1.081-1.703-.651-3.968.969-5.139l21.28-14.25c1.704-1.08 3.969-.65 5.14.969l14.249 21.281c1.171 1.619.741 3.884-.969 5.139zm26.008-333.184l-13.577 9.091a2.442 2.442 0 01-3.278-.618l-9.091-13.577a2.443 2.443 0 01.618-3.279l13.576-9.09a2.443 2.443 0 013.279.618l9.091 13.576c.747 1.033.473 2.478-.618 3.279z" stroke="#000" stroke-width=".5" stroke-miterlimit="10" stroke-linecap="round"/><path d="M373.795 509.783l-24.254-6.499a3.676 3.676 0 01-2.592-4.489l6.499-24.254a3.675 3.675 0 014.489-2.592l24.254 6.499a3.676 3.676 0 012.592 4.489l-6.499 24.254a3.676 3.676 0 01-4.489 2.592z" fill="#E4F9FF"/><path fill-rule="evenodd" clip-rule="evenodd" d="M368.351 481.95c-2.524-.677-2.844-.751-3.848-.971-1.001-.22-1.719-.244-2.371-.173a4.71 4.71 0 00-1.934.631 4.72 4.72 0 00-1.514 1.359c-.389.529-.726 1.163-1.036 2.14-.31.979-.407 1.293-1.083 3.817-.676 2.524-.75 2.843-.97 3.847-.22 1.001-.244 1.719-.173 2.371a4.71 4.71 0 00.631 1.934 4.72 4.72 0 001.358 1.514c.53.388 1.164.726 2.141 1.036.979.311 1.293.407 3.817 1.083 2.524.676 2.843.75 3.846.971 1.002.219 1.72.244 2.373.172a4.706 4.706 0 001.933-.631 4.732 4.732 0 001.514-1.359c.387-.53.724-1.164 1.036-2.14.31-.98.406-1.293 1.083-3.817.676-2.524.749-2.844.97-3.847.219-1.002.243-1.72.173-2.372a4.725 4.725 0 00-.631-1.934 4.729 4.729 0 00-1.359-1.513c-.531-.388-1.165-.726-2.142-1.036-.98-.311-1.292-.407-3.817-1.083l.003.001z" fill="#fff"/><path fill-rule="evenodd" clip-rule="evenodd" d="M367.068 483.401l.834.223c2.482.665 2.773.753 3.741 1.06.895.284 1.347.568 1.64.783.389.284.644.569.882.981.238.412.357.776.409 1.255.04.362.06.894-.142 1.811-.218.992-.287 1.289-.952 3.769-.664 2.481-.753 2.773-1.06 3.74-.284.895-.568 1.347-.782 1.64a2.99 2.99 0 01-.982.881 2.976 2.976 0 01-1.254.409c-.362.04-.895.059-1.812-.142-.992-.218-1.289-.287-3.77-.952-2.482-.665-2.773-.754-3.741-1.061-.895-.284-1.347-.567-1.64-.783a2.972 2.972 0 01-.883-.981 2.98 2.98 0 01-.409-1.255c-.04-.361-.06-.894.142-1.811.218-.991.288-1.288.953-3.77s.752-2.773 1.059-3.74c.285-.896.568-1.347.783-1.64.285-.389.569-.645.982-.883a2.99 2.99 0 011.255-.409c.362-.04.894-.059 1.812.142.868.191 1.203.268 2.936.731l-.001.002zm5.382 3.096a1.154 1.154 0 10-.598 2.23 1.154 1.154 0 00.598-2.23zm-5.311-.026a4.941 4.941 0 10-2.558 9.544 4.941 4.941 0 002.558-9.544z" fill="#fff"/><path fill-rule="evenodd" clip-rule="evenodd" d="M366.69 488.146a3.207 3.207 0 11-1.66 6.196 3.207 3.207 0 011.66-6.196z" fill="#fff"/><path fill-rule="evenodd" clip-rule="evenodd" d="M366.69 488.146a3.207 3.207 0 11-1.66 6.196 3.207 3.207 0 011.66-6.196z" fill="#E4F9FF"/><path fill-rule="evenodd" clip-rule="evenodd" d="M367.068 483.401l.834.223c2.482.665 2.773.753 3.741 1.06.895.284 1.347.568 1.64.783.389.284.644.569.882.981.238.412.357.776.409 1.255.04.362.06.894-.142 1.811-.218.992-.287 1.289-.952 3.769-.665 2.481-.753 2.773-1.06 3.74-.284.895-.568 1.347-.782 1.64a2.99 2.99 0 01-.982.881 2.976 2.976 0 01-1.254.409c-.362.04-.895.059-1.812-.142-.992-.218-1.289-.287-3.77-.952-2.482-.665-2.774-.754-3.741-1.061-.895-.284-1.347-.567-1.64-.783a2.972 2.972 0 01-.883-.981 2.98 2.98 0 01-.409-1.255c-.04-.361-.06-.894.142-1.811.218-.991.288-1.288.953-3.77s.752-2.773 1.059-3.74c.285-.896.568-1.347.783-1.64.285-.389.569-.645.982-.883a2.99 2.99 0 011.255-.409c.362-.04.894-.059 1.812.142.868.191 1.203.268 2.936.731l-.001.002zm5.382 3.096a1.154 1.154 0 10-.598 2.23 1.154 1.154 0 00.598-2.23zm-5.311-.026a4.941 4.941 0 10-2.558 9.544 4.941 4.941 0 002.558-9.544z" fill="#E4F9FF"/><path d="M1487.71 479.97l-28.54-7.058c-2.29-.567-3.71-2.906-3.14-5.198l7.06-28.547c.56-2.292 2.9-3.703 5.2-3.137l28.54 7.058c2.29.567 3.71 2.906 3.14 5.198l-7.06 28.547c-.56 2.292-2.9 3.703-5.2 3.137z" fill="#E4F9FF"/><path fill-rule="evenodd" clip-rule="evenodd" d="M1472.24 455.956c-1.72.751-3.49 1.522-5.11 2.413-.84.617.28 1.054 1.33 1.464.17.066.34.13.49.195.13.039.26.081.4.124 1.17.373 2.47.788 3.61.163 1.87-1.072 3.63-2.312 5.39-3.55a129.607 129.607 0 011.82-1.27c.5-.321 1.61-1.041 1.2-.048-.98 1.062-2.02 2.003-3.06 2.949a61.25 61.25 0 00-2.11 1.959c-.6.489-1.23 1.473-.55 2.158 1.55 1.086 3.13 2.147 4.7 3.207.52.345 1.03.69 1.54 1.035.87.693 2.22.133 2.41-.949.09-.498.17-.996.26-1.494.47-2.75.94-5.502 1.36-8.262.05-.433.12-.866.18-1.299.16-1.05.31-2.101.36-3.156-.13-1.053-1.4-.821-2.11-.585-3.66 1.39-7.27 2.883-10.87 4.402-.41.181-.83.362-1.24.544z" fill="#fff"/><path d="M1672.17 234.607l-33.31-6.609c-2.67-.531-4.43-3.154-3.9-5.828l6.61-33.308c.54-2.674 3.16-4.428 5.83-3.897l33.31 6.61c2.67.531 4.43 3.153 3.9 5.827L1678 230.71c-.53 2.674-3.16 4.428-5.83 3.897z" fill="#E4F9FF"/><path fill-rule="evenodd" clip-rule="evenodd" d="M1673.11 206.059c-.07-1.186-.76-2.246-1.8-2.765-1.88-.943-9.86-2.527-9.86-2.527s-7.98-1.585-10.08-1.432c-1.16.084-2.2.8-2.72 1.87-.94 1.938-1.78 6.203-1.78 6.203s-.85 4.264-.72 6.414c.07 1.186.76 2.246 1.79 2.766 1.89.943 9.87 2.527 9.87 2.527s7.98 1.584 10.08 1.431c1.16-.083 2.2-.8 2.72-1.869.94-1.939 1.78-6.203 1.78-6.203s.85-4.265.72-6.415zm-16.74 7.794l1.58-7.977 5.59 5.255-7.17 2.722z" fill="#fff"/><path d="M1364.74 159.701l-32.86 8.58a4.972 4.972 0 01-6.05-3.543l-8.58-32.856c-.69-2.638.91-5.36 3.55-6.049l32.85-8.58a4.972 4.972 0 016.05 3.543l8.58 32.856c.69 2.638-.9 5.36-3.54 6.049z" fill="#E4F9FF"/><path fill-rule="evenodd" clip-rule="evenodd" d="M1347.44 156.019l-3.44-13.191 3.55-.927-.72-4.668-4.02 1.049-.59-2.277c-.31-1.186-.36-1.85 1.3-2.283l2.21-.579-1.18-4.546-3.55.926c-4.26 1.113-5.19 3.71-4.22 7.419l.72 2.729-2.66.694 1.19 4.546 2.65-.694 3.45 13.191 5.31-1.389z" fill="#fff"/><path d="M1560.31 119.312l-56.05-17.409a8.565 8.565 0 01-5.65-10.741l17.36-55.906a8.566 8.566 0 0110.74-5.65l55.91 17.364a8.572 8.572 0 015.65 10.74l-17.37 55.906c-1.41 4.537-6.2 7.059-10.59 5.696z" fill="#E4F9FF"/><path d="M1545.93 69.293l.36-1.483c.9-3.856 4.31-6.576 8.43-6.764 1.51-.052 3.84.606 5.22 1.49.54.363 1.48 1.306 2.11 2.09l1.15 1.43 1.75-.008c.97.009 2.3-.07 2.92-.2.59-.112 1.08-.122 1.05-.033-.16.505-1.79 1.888-3 2.554-1.66.95-1.34 1.18 1.45 1.07 1.67-.036 1.7-.027 1.23.446-.27.241-1.51.996-2.79 1.644-2.16 1.119-2.31 1.27-2.73 2.636-.66 2.11-3.03 6.195-4.78 8.289-3.27 3.937-8.72 7.36-13.44 8.466-6.65 1.55-14.4.056-20.11-3.834-1.9-1.307-4.99-4.093-4.9-4.39.03-.089 1.16.132 2.5.517 2.8.805 5.83.897 8.62.265l1.89-.454-1.64-1.194c-2.33-1.7-4.03-4.477-4.02-6.592.01-.68.08-.69 1.74-.176l1.73.504-1.24-1.134c-1.45-1.395-2.57-3.338-2.88-5.063-.23-1.245-.1-4.17.17-4.313.09-.07.66.3 1.29.76 1.82 1.377 2.14 1.281 1.34-.335-1.52-2.947-1.16-6.516.9-9.365l.94-1.27 1.36 2.539c2.79 5.134 6.77 8.913 11.95 11.27l1.43.638z" fill="#fff"/><path d="M1677.41 37.713l-25.28-4.09c-1.99-.372-3.35-2.23-3.1-4.214l4.09-25.282c.37-1.983 2.23-3.346 4.21-3.098l25.28 4.09c1.99.372 3.35 2.23 3.1 4.213l-4.09 25.282c-.24 1.983-2.1 3.347-4.21 3.099zm-263.86 27.244l-24.9-5.928c-1.95-.515-3.21-2.486-2.81-4.49l5.93-24.898c.52-1.951 2.49-3.21 4.49-2.807l24.9 5.928c1.95.515 3.21 2.485 2.81 4.49l-5.93 24.898c-.46 2.116-2.54 3.322-4.49 2.807zm220.92 343.279l-43.05 11.694c-3.41.837-6.91-1.132-7.94-4.456l-11.7-43.051c-.83-3.413 1.14-6.912 4.46-7.945l43.05-11.694c3.41-.837 6.91 1.132 7.95 4.456l11.69 43.05c1.12 3.521-1.04 7.11-4.46 7.946z" stroke="#000" stroke-width=".5" stroke-miterlimit="10" stroke-linecap="round"/><defs><filter id="a" x="248" y="307" width="1253" height="673.345" filterUnits="userSpaceOnUse" color-interpolation-filters="sRGB"><feFlood flood-opacity="0" result="BackgroundImageFix"/><feBlend in="SourceGraphic" in2="BackgroundImageFix" result="shape"/><feGaussianBlur stdDeviation="47.5" result="effect1_foregroundBlur_303_299"/></filter></defs></svg>