<svg version="1.1" id="Слой_1" xmlns="http://www.w3.org/2000/svg" xmlns:xlink="http://www.w3.org/1999/xlink" x="0" y="0" viewBox="0 0 504.4 413.4" xml:space="preserve"><style>.st1{fill:none;stroke:#263238;stroke-linecap:round;stroke-linejoin:round;stroke-miterlimit:10}.st2{fill:#02cffe}.st3{opacity:.3;fill-opacity:.7;enable-background:new}.st4{fill:#02cffe;stroke:#263238;stroke-linecap:round;stroke-linejoin:round;stroke-miterlimit:10}.st5{opacity:.2;fill-opacity:.7;enable-background:new}.st6{fill:#fff}.st7{fill:#263238}.st10,.st8{stroke:#263238;stroke-miterlimit:10}.st8{fill:#bfbfbf}.st10{fill:none}.st11{fill:#757575}.st13{fill:#bfbfbf}.st14,.st15{fill:#02cffe;stroke:#263238;stroke-miterlimit:10}.st15{fill:#757575;stroke-linecap:round;stroke-linejoin:round}</style><path d="M228.6 35C338.8 25.2 339 87.3 388.7 145.2c49.7 57.9 60.3 84.2 41.6 150.9-18.8 66.7-81.9 119.1-159.9 89.4-78.1-29.7-122.8-1.2-172-27.5-49.3-26.3-67.6-77.2-31.5-137.1C103 160.9 92.7 47.1 228.6 35z" fill="#02cffe" fill-opacity=".2"/><path class="st1" d="M267.5 30l-20.1 4.2c-2.8.6-5.4-1.2-5.9-3.8l-4.3-20.1c-.6-2.8 1.2-5.4 3.8-5.9L261.1.2c2.8-.6 5.4 1.2 5.9 3.8l4.2 20.1c.7 2.6-1 5.3-3.7 5.9zm-14.6-18.9l2.7 12.2m4.7-7.4l-12.1 2.6M500.4 272l-20.1 4.2c-2.8.6-5.4-1.2-5.9-3.8l-4.2-20.1c-.6-2.8 1.2-5.4 3.8-5.9l20.1-4.2c2.8-.6 5.4 1.2 5.9 3.8l4.2 20.1c.6 2.7-1 5.4-3.8 5.9zm-9.8-18.1l-6.8 10.5m8.6-1.8l-10.5-6.8m-289.6 157l-20.5-1.2c-2.8-.2-4.9-2.6-4.7-5.3l1.2-20.5c.2-2.8 2.6-4.9 5.3-4.7l20.5 1.2c2.8.2 4.9 2.6 4.7 5.3l-1.2 20.5c-.2 2.7-2.6 4.8-5.3 4.7zm-3.2-15.6l-12.4-.7M23 235.8l-19.5-6.5c-2.7-.9-4-3.7-3.2-6.3l6.5-19.5c.9-2.7 3.7-4 6.3-3.2l19.5 6.5c2.7.9 4 3.7 3.2 6.3l-6.5 19.5c-.9 2.7-3.7 4.1-6.3 3.2zm2.8-21.6L10.2 222"/><path class="st1" d="M16.8 210.9c.5 1.1.1 2.4-1 3-1.1.5-2.4.1-3-1-.5-1.1-.1-2.4 1-3 1.2-.5 2.5-.1 3 1zm6.3 12.3c.5 1.1.1 2.4-1 3-1.1.5-2.4.1-3-1-.5-1.1-.1-2.4 1-3 1.1-.5 2.4 0 3 1z"/><path class="st2" d="M263.3 353.1c-5.7 8.3-17.1 10.4-25.2 4.6-3.2-2.2-5.4-5.2-6.7-8.6-2-5.4-1.4-11.6 2.1-16.7 2.5-3.5 5.9-5.9 9.8-7.1 5.1-1.6 10.9-.8 15.6 2.5 8.1 5.8 10.2 17.1 4.4 25.3z"/><path class="st3" d="M261 351.5c-4.8 6.9-14.3 8.7-21.3 3.8-6.9-4.8-8.7-14.3-3.8-21.3 4.8-6.9 14.3-8.7 21.3-3.8 6.8 4.9 8.6 14.3 3.8 21.3z"/><path class="st1" d="M261 351.5c-4.8 6.9-14.3 8.7-21.3 3.8-6.9-4.8-8.7-14.3-3.8-21.3 4.8-6.9 14.3-8.7 21.3-3.8 6.8 4.9 8.6 14.3 3.8 21.3z"/><path class="st4" d="M252.4 335.2l.7-1.1 1.9 1.3-.7 1.1c1.4 1.4 1.4 3.3 0 5.1l-.3.5-2.2-1.5.4-.6c.7-1 .6-1.7-.2-2.2-.7-.5-1.4-.4-2.1.6-.7 1-.8 2-.1 4.2.8 2.8.7 4.3-.5 5.9-1.4 2-3.1 2.6-4.8 1.9l-.7 1.1-1.9-1.3.7-1.1c-1.4-1.5-1.4-3.3 0-5.2l.7-1 2.2 1.5-.8 1.1c-.7 1-.5 1.7.2 2.2s1.4.4 2.2-.6c.7-1 .8-2.1.1-4.2-.8-2.8-.7-4.3.5-5.9 1.2-1.9 2.8-2.5 4.7-1.8z"/><path class="st5" d="M243.4 328.1c0 9-4.8 16.8-11.9 21.1-2-5.4-1.4-11.6 2.1-16.7 2.5-3.5 5.9-5.9 9.8-7.1-.1.9 0 1.8 0 2.7z"/><path class="st1" d="M263.3 353.1c-5.7 8.3-17.1 10.4-25.2 4.6-3.2-2.2-5.4-5.2-6.7-8.6-2-5.4-1.4-11.6 2.1-16.7 2.5-3.5 5.9-5.9 9.8-7.1 5.1-1.6 10.9-.8 15.6 2.5 8.1 5.8 10.2 17.1 4.4 25.3z"/><path class="st4" d="M222.5 345.6c10 0 18.1-8.1 18.1-18.1 0-10-8.1-18.1-18.1-18.1s-18.1 8.1-18.1 18.1c0 10 8.1 18.1 18.1 18.1z"/><path class="st3" d="M222.5 342.8c8.4 0 15.3-6.8 15.3-15.3s-6.8-15.3-15.3-15.3c-8.4 0-15.3 6.8-15.3 15.3s6.9 15.3 15.3 15.3z"/><path class="st1" d="M222.5 342.8c8.4 0 15.3-6.8 15.3-15.3s-6.8-15.3-15.3-15.3c-8.4 0-15.3 6.8-15.3 15.3s6.9 15.3 15.3 15.3z"/><path class="st4" d="M221.3 319v-1.3h2.3v1.3c2 .4 3 1.9 3 4.2v.6H224v-.7c0-1.3-.5-1.7-1.4-1.7-.9 0-1.4.5-1.4 1.7 0 1.3.5 2.1 2.4 3.5 2.3 1.8 3 3.2 3 5.1 0 2.4-1 3.8-3 4.2v1.3h-2.3V336c-2-.4-3-1.9-3-4.2v-1.2h2.6v1.4c0 1.3.6 1.7 1.4 1.7.9 0 1.4-.5 1.4-1.7 0-1.3-.5-2.2-2.4-3.5-2.3-1.8-3-3.2-3-5.1.2-2.4 1.2-4 3-4.4zm103.2 23.8c5.4-8.4 3-19.7-5.5-25.1-8.4-5.4-19.7-2.9-25.1 5.5-5.4 8.4-3 19.7 5.5 25.1 8.5 5.3 19.7 2.9 25.1-5.5z"/><path class="st3" d="M320.5 322.5c5.7 6.2 5.4 15.9-.8 21.6-6.2 5.7-15.9 5.4-21.6-.8-5.7-6.2-5.4-15.9.8-21.6 6.1-5.7 15.7-5.3 21.6.8z"/><path class="st1" d="M320.5 322.5c5.7 6.2 5.4 15.9-.8 21.6-6.2 5.7-15.9 5.4-21.6-.8-5.7-6.2-5.4-15.9.8-21.6 6.1-5.7 15.7-5.3 21.6.8z"/><path class="st4" d="M302.6 327.5l-.9-1 1.7-1.5.9 1c1.7-1 3.5-.6 5 1.1l.4.4-1.9 1.8-.5-.5c-.9-.9-1.5-.9-2.2-.3-.6.6-.7 1.3.2 2.2.9.9 1.8 1.2 4.1 1 2.9-.2 4.3.3 5.7 1.7 1.6 1.8 1.9 3.5.7 5.1l.9.9-1.7 1.5-.9-.9c-1.7 1.1-3.5.6-5-1.1l-.8-.9 1.9-1.8.9 1c.9.9 1.6.9 2.2.3s.7-1.3-.1-2.2c-.9-.9-1.8-1.2-4.1-1-2.9.2-4.3-.3-5.7-1.7-1.6-1.8-1.9-3.5-.8-5.1z"/><path class="st5" d="M301.7 254s-.1 37.7 0 39.9c.1 2.2 3 15.5 3 15.5l-9.2 16.9 7.9 6.3 15.4-15.1s13 8.1 15.5 19.6c2.4 11.5 16.6 19.9 31.4 51.9 14.8 31.9 31.6-71.5 31.6-71.5l-45.5-57.3-50.1-6.2z"/><path class="st6" d="M440.8 51.4l-13.9 136-8.6 83.6-119.7-12.2-23.4-2.4-14.9-1.6 13.2-129.1 9.3-90.5 158 16.2z"/><path class="st7" d="M394.9 56.5l-68.3-7c-1.3-.1-2.5.8-2.6 2.1-.1 1.3.8 2.5 2.1 2.6l68.3 7c1.3.1 2.5-.8 2.6-2.1.1-1.3-.8-2.5-2.1-2.6zm-18 7.8l-34.1-3.5c-.6-.1-1.2.4-1.3 1.1-.1.6.4 1.2 1.1 1.3l34.1 3.5c.6.1 1.2-.4 1.3-1.1 0-.7-.4-1.2-1.1-1.3zm37.5 100.3l-110.7-11.3c-.6-.1-1.2.4-1.3 1.1-.1.6.4 1.2 1.1 1.3L414.2 167c.6.1 1.2-.4 1.3-1.1.1-.7-.5-1.2-1.1-1.3zm-.8 8.4l-128.7-13.2c-.6-.1-1.2.4-1.3 1.1-.1.6.4 1.2 1.1 1.3l128.7 13.2c.6.1 1.2-.4 1.3-1.1-.1-.8-.4-1.2-1.1-1.3zm-36.9 4.6l-92.7-9.5c-.6-.1-1.2.4-1.3 1.1-.1.6.4 1.2 1.1 1.3l92.7 9.5c.6.1 1.2-.4 1.3-1.1.1-.7-.5-1.2-1.1-1.3z"/><path class="st8" d="M282.5 177l-3.8 36.8 129.8 13.3 3.8-36.8L282.5 177z"/><path class="st2" d="M323.5 141.3c16 0 28.9-12.9 28.9-28.9 0-16-12.9-28.9-28.9-28.9s-28.9 12.9-28.9 28.9c0 16 13 28.9 28.9 28.9z"/><path d="M342 134.6c12.3-10.2 13.9-28.4 3.7-40.7-10.2-12.2-28.4-13.9-40.7-3.7-12.3 10.2-13.9 28.4-3.7 40.7s28.5 13.9 40.7 3.7z" opacity=".5" fill="#fff"/><path class="st10" d="M323.5 141.3c16 0 28.9-12.9 28.9-28.9 0-16-12.9-28.9-28.9-28.9s-28.9 12.9-28.9 28.9c0 16 13 28.9 28.9 28.9z"/><path class="st6" d="M324.4 112.3l24.1 12.1c1.4-2.8 2.3-5.9 2.6-9.2.8-7.4-1.5-14.4-5.8-19.9l-20.9 17z"/><path class="st2" d="M324.5 111l20.1-16.4c-3-3.6-6.9-6.3-11.2-8l-3.6 10-5.3 14.4z"/><path class="st11" d="M326.9 85l-2.5 23.8 8.2-22.5c-1.9-.6-3.8-1-5.7-1.3z"/><path d="M323.1 112.1l2.8-27.2c-15-1.3-28.3 9.7-29.8 24.7-.5 4.9.3 9.6 2.2 13.8l24.8-11.3z" fill="#999"/><path class="st13" d="M320.7 139.8c11.5 1.2 22.2-4.9 27.2-14.6l-24.5-12.3-25 11.3c4.2 8.4 12.4 14.6 22.3 15.6z"/><path class="st14" d="M369.5 98.2l-3.3-.3c-.3 0-.6-.3-.6-.7l.3-3.3c0-.3.3-.6.7-.6l3.3.3c.3 0 .6.3.6.7l-.3 3.3c-.1.3-.4.6-.7.6z"/><path class="st7" d="M415.7 100l-42.5-4.3c-.3 0-.5-.3-.5-.6s.3-.5.6-.5l42.5 4.3c.3 0 .5.3.5.6-.1.3-.3.5-.6.5zm-4.4 1.9l-38.3-4c-.3 0-.5-.3-.5-.6s.3-.5.6-.5l38.3 3.9c.3 0 .5.3.5.6s-.3.6-.6.6z"/><path class="st15" d="M368.4 108.3l-3.3-.3c-.3 0-.6-.3-.6-.7l.3-3.3c0-.3.3-.6.7-.6l3.3.3c.3 0 .6.3.6.7l-.3 3.3c0 .4-.3.7-.7.6z"/><path class="st7" d="M414.6 110.1l-42.4-4.3c-.3 0-.5-.3-.5-.6s.3-.5.6-.5l42.5 4.3c.3 0 .5.3.5.6-.1.3-.3.5-.7.5zm-4.3 1.9l-38.3-3.9c-.3 0-.5-.3-.5-.6s.3-.5.6-.5l38.3 3.9c.3 0 .5.3.5.6-.1.3-.3.5-.6.5z"/><path d="M367.4 118.4l-3.3-.3c-.3 0-.6-.3-.6-.7l.3-3.3c0-.3.3-.6.7-.6l3.3.3c.3 0 .6.3.6.7l-.3 3.3c-.1.4-.4.6-.7.6h0z" fill="#999" stroke="#263238" stroke-linecap="round" stroke-linejoin="round" stroke-miterlimit="10"/><path class="st7" d="M413.7 120.3l-42.5-4.3c-.3 0-.5-.3-.5-.6s.3-.5.6-.5l42.5 4.3c.3 0 .5.3.5.6-.1.3-.3.5-.6.5zm-4.5 1.8l-38.3-3.9c-.3 0-.5-.3-.5-.6s.3-.5.6-.5l38.3 3.9c.3 0 .5.3.5.6s-.3.6-.6.5z"/><path class="st8" d="M366.3 128.6l-3.3-.3c-.3 0-.6-.3-.6-.7l.3-3.3c0-.3.3-.6.7-.6l3.3.3c.3 0 .6.3.6.7l-.3 3.3c0 .4-.3.6-.7.6z"/><path class="st7" d="M412.6 130.4l-42.5-4.3c-.3 0-.5-.3-.5-.6s.3-.5.6-.5l42.5 4.3c.3 0 .5.3.5.6 0 .4-.3.6-.6.5zm-4.4 1.8l-38.3-3.9c-.3 0-.5-.3-.5-.6s.3-.5.6-.5l38.3 3.9c.3 0 .5.3.5.6-.1.3-.3.5-.6.5z"/><path d="M365.3 138.6l-3.3-.3c-.3 0-.6-.3-.6-.7l.3-3.3c0-.3.3-.6.7-.6l3.3.3c.3 0 .6.3.6.7l-.3 3.3c-.1.4-.4.7-.7.6z" fill="#fff" stroke="#263238" stroke-linecap="round" stroke-linejoin="round" stroke-miterlimit="10"/><path class="st7" d="M411.6 140.5l-42.5-4.3c-.3 0-.5-.3-.5-.6s.3-.5.6-.5l42.5 4.4c.3 0 .5.3.5.6-.1.2-.3.4-.6.4zm-4.5 1.9l-38.3-3.9c-.3 0-.5-.3-.5-.6s.3-.5.6-.5l38.3 3.9c.3 0 .5.3.5.6s-.3.5-.6.5z"/><path class="st15" d="M392.7 214.7l2.5.3 1.4-13.8-2.5-.3-1.4 13.8z"/><path class="st14" d="M392.8 212.7l2.5.3.7-6.6-2.5-.3-.7 6.6z"/><path class="st15" d="M398.5 211.8l2.5.3 1.4-13.8-2.5-.3-1.4 13.8z"/><path class="st14" d="M399.6 201.6l-.7 6.6 2.5.3.7-6.6-2.5-.3z"/><path class="st15" d="M403.6 215l2.5.3 1.4-13.8-2.5-.3-1.4 13.8z"/><path class="st14" d="M404.2 209.8l2.5.3.7-6.6-2.5-.3-.7 6.6z"/><path class="st15" d="M387.4 211.5l2.5.3 1.4-13.8-2.5-.3-1.4 13.8z"/><path class="st14" d="M387.7 209.3l2.5.3.7-6.6-2.5-.3-.7 6.6z"/><path class="st15" d="M381.6 215l2.5.3 1.4-13.8-2.5-.3-1.4 13.8z"/><path class="st14" d="M381.7 213.4l2.5.3.7-6.6-2.5-.3-.7 6.6z"/><path class="st15" d="M376.4 210.9l2.5.3 1.4-13.8-2.5-.3-1.4 13.8z"/><path class="st14" d="M376.6 210.3l2.5.3.7-6.6-2.5-.3-.7 6.6z"/><path class="st15" d="M370.2 217.5l2.5.3 1.4-13.8-2.5-.3-1.4 13.8z"/><path class="st14" d="M370.4 216.9l2.5.3.7-6.6-2.5-.3-.7 6.6z"/><path class="st15" d="M365.7 208.2l2.5.3 1.4-13.8-2.5-.3-1.4 13.8z"/><path class="st14" d="M365.9 206.2l2.5.3.7-6.6-2.5-.3-.7 6.6z"/><path class="st15" d="M360.3 206.9l2.5.3 1.4-13.8-2.5-.3-1.4 13.8z"/><path class="st14" d="M360.9 201.6l2.5.3.7-6.6-2.5-.3-.7 6.6z"/><path class="st15" d="M354 215l2.5.3 1.4-13.8-2.5-.3L354 215z"/><path class="st14" d="M354.5 209.3l2.5.3.7-6.6-2.5-.3-.7 6.6z"/><path class="st15" d="M349.2 208.4l2.5.3 1.4-13.8-2.5-.3-1.4 13.8z"/><path class="st14" d="M349.5 205.8l2.5.3.7-6.6-2.5-.3-.7 6.6z"/><path class="st15" d="M343.4 211.4l2.5.3 1.4-13.8-2.5-.3-1.4 13.8z"/><path class="st14" d="M343.5 209.3l2.5.3.7-6.6-2.5-.3-.7 6.6z"/><path class="st15" d="M337.2 217l2.5.3 1.4-13.8-2.5-.3-1.4 13.8z"/><path class="st14" d="M337.2 217.1l2.5.3.7-6.6-2.5-.3-.7 6.6z"/><path class="st15" d="M332.7 207.7l2.5.3 1.4-13.8-2.5-.3-1.4 13.8z"/><path class="st14" d="M332.8 206.1l2.5.3.7-6.6-2.5-.3-.7 6.6z"/><path class="st15" d="M327.9 201l2.5.3 1.4-13.8-2.5-.3-1.4 13.8z"/><path class="st14" d="M328 199.5l2.5.3.7-6.6-2.5-.3-.7 6.6z"/><path class="st15" d="M321.7 207.9l2.5.3 1.4-13.8-2.5-.3-1.4 13.8z"/><path class="st14" d="M322.2 202.6l2.5.3.7-6.6-2.5-.3-.7 6.6z"/><path class="st15" d="M315.4 215.1l2.5.3 1.4-13.8-2.5-.3-1.4 13.8z"/><path class="st14" d="M316 208.9l2.5.3.7-6.6-2.5-.3-.7 6.6z"/><path class="st15" d="M310.7 206.7l2.5.3 1.4-13.8-2.5-.3-1.4 13.8z"/><path class="st14" d="M310.9 204.7l2.5.3.7-6.6-2.5-.3-.7 6.6z"/><path class="st15" d="M305.5 203.8l2.5.3 1.4-13.8-2.5-.3-1.4 13.8z"/><path class="st14" d="M306.1 198.2l2.5.3.7-6.6-2.5-.3-.7 6.6z"/><path class="st15" d="M299.6 207.6l2.5.3 1.4-13.8-2.5-.3-1.4 13.8z"/><path class="st14" d="M299.6 207.6l2.5.3.7-6.6-2.5-.3-.7 6.6z"/><path class="st15" d="M294.6 202.7l2.5.3 1.4-13.8-2.5-.3-1.4 13.8z"/><path class="st14" d="M294.7 201.7l2.5.3.7-6.6-2.5-.3-.7 6.6z"/><path class="st15" d="M288.9 204.1l2.5.3 1.4-13.8-2.5-.3-1.4 13.8z"/><path class="st14" d="M288.9 203.6l2.5.3.7-6.6-2.5-.3-.7 6.6z"/><path class="st15" d="M283.7 201.7l2.5.3 1.4-13.8-2.5-.3-1.4 13.8z"/><path class="st14" d="M284.3 194.9l2.5.3.7-6.6-2.5-.3-.7 6.6z"/><path class="st7" d="M407.5 231.7l-110.7-11.3c-.6-.1-1.2.4-1.3 1.1-.1.6.4 1.2 1.1 1.3l110.7 11.3c.6.1 1.2-.4 1.3-1.1.1-.7-.5-1.2-1.1-1.3zm-.8 8.4L278 226.9c-.6-.1-1.2.4-1.3 1.1-.1.6.4 1.2 1.1 1.3l128.7 13.2c.6.1 1.2-.4 1.3-1.1-.1-.7-.5-1.3-1.1-1.3zm-55 2.8l-74.7-7.7c-.6-.1-1.2.4-1.3 1.1-.1.6.4 1.2 1.1 1.3l74.7 7.7c.6.1 1.2-.4 1.3-1.1.1-.7-.4-1.2-1.1-1.3z"/><path class="st5" d="M419.8 168.4c-3.8-.3-5.1 5.8-5.1 5.8s-6-7.9-5-26.5c0 0-3-8.3-10.8-3.3-7.9 4.9-16.1 22.5-14.1 41.6l-15.4-51c-5.3 1.1-16.1 8.3-13.2 42.7L339.3 160s-4.5-1.5-7.1 2.6c-2.6 4-1.4 32.7.8 43.5 2.2 10.7-3.3 32.3-3.3 32.3s-5.8-24.5-16.3-30.7l-39.9-82-13.2 129.1 14.9 1.6 24-11.6c-.1 5.4-.3 10.4-.7 14L418.2 271l8.6-83.6c-2.8-10.4-5.6-18.9-7-19z"/><path class="st1" d="M440.8 51.4l-13.9 136-8.6 83.6-119.7-12.2-23.4-2.4-14.9-1.6 13.2-129.1 9.3-90.5 158 16.2z"/><path class="st6" d="M438.8 401.4l-70 11.9s-12.2-64.7-19.4-74.9c-7.3-10.2-5.9-14.4-9.5-21.3-2.2-4.1-12.8-11.9-21.2-19.5-.7-.7-1.5-1.3-2.2-2-.3-.3-.6-.6-.9-.8-1.1-1.1-2.2-2.2-3.1-3.3-.3-.4-.7-.8-1-1.1-1.8-2.2-3-4.1-3.4-6 0-.1 0-.2-.1-.3 0-.1 0-.2-.1-.4l-.6-5.1c0-.4-.1-.8-.1-1.2 0-.2 0-.3-.1-.5-.2-1.6-.4-3.3-.6-4.9-.2-1.8-.5-3.6-.7-5.5-.1-.7-.2-1.3-.3-2-.1-.7-.2-1.5-.4-2.2-.1-.6-.2-1.3-.3-1.9 0-.1-.1-.2-.1-.3-.1-.8-.3-1.5-.4-2.2v-.2c-.1-.6-.3-1.3-.4-1.9-.3-1.5-.7-2.9-1-4.1-.8-2.8-1.6-5.2-2.6-7.5-5-11.2 1.5-7.2-2.5-36.2 0 0 3-6.7 11.2-1.4.6.4 1.3.9 1.9 1.4 1.7 1.4 3.2 3 4.4 4.7 1.7 2.4 3 5.1 3.8 7.9 1.3 4.3 1.8 9.1 1.1 14.1 0 0 6.2 21.4 9.5 26.2 3.3 4.8 16.9-23.1 16-26.3-.2-.7-.4-2.3-.7-4.4-.1-.5-.1-1-.2-1.6-.1-.6-.1-1.1-.2-1.7 0-.3-.1-.6-.1-.9v-.4c-.1-1.1-.3-2.3-.4-3.5 0-.4-.1-.7-.1-1-.1-.6-.1-1.2-.2-1.8v-.3c0-.3-.1-.7-.1-1-.1-.7-.1-1.4-.2-2.1-.1-.6-.1-1.2-.2-1.8-.1-1.1-.2-2.3-.3-3.4-.1-.8-.2-1.7-.2-2.5 0-.2 0-.4-.1-.5-.4-4.3-.8-7.9-.9-9.5 0 0-9.9-14.6-10.8-21.5-1-6.9-.9-14.1 3.2-17.1 9.8-7 6.9 4.2 11.3 8.9 4.3 4.6 11 12.2 14.9 14.6 3.6 2.3 6.6 10.8 7.1 12.1-.5-1.9-5.5-20.5-5.6-24.3-.1-3.9-3.2-24.8 2-32.3 5.1-7.5 11.9-1.7 12.6-.2.6 1.5.8 21.7 2.7 27.3 1.8 5.6 9.4 29.1 9.4 29.1s.3-22.8 2-33 6.1-18.1 10.5-18.6c4.3-.5 8.4 4.3 8.4 4.3s-1.7 16.3-1.2 20c.5 3.7-.7 17.4 1.4 24.7 0 0-.2-19.4 2.8-21.9 3.1-2.5 5.6-3.6 7.3-2 1.7 1.7 2.1 13.2 3.7 20.1 1.8 6.9 1.5 16.4 2.7 27.1 1.2 10.7 5.6 25.7 4.7 34.3-.9 8.6-3.6 29.8-5.8 42.3-2.2 12.5-7.8 29.6-7.8 29.6s2.6 9.1 2.1 17.3c-.6 8.3 19.4 62.4 19.4 62.4z"/><path class="st5" d="M319.5 220.4s-17.5 8.9-18.8 23.7c-5-11.2 1.5-7.2-2.5-36.2 0 0 3-6.7 11.2-1.4.6.4 1.3.9 1.9 1.4 1.7 1.4 3.2 3 4.4 4.7l3.8 7.8z"/><path class="st1" d="M368.8 413.4s-12.2-64.8-19.4-74.9c-7.3-10.2-5.9-14.4-9.5-21.3-3.6-6.9-30.5-23.6-31.7-33.3-1.2-9.8-2.6-28.5-7.6-39.7-5-11.2 1.5-7.2-2.5-36.2 0 0 3-6.7 11.2-1.4 8.3 5.3 12.6 16.1 11.2 28 0 0 6.2 21.3 9.6 26.2 3.3 4.8 16.9-23.1 16-26.3-.9-3.3-3.5-31.1-3.8-36.1 0 0-9.9-14.6-10.9-21.5s-.9-14.1 3.2-17.1c9.8-7 6.9 4.2 11.3 8.9 4.3 4.6 11.1 12.2 14.9 14.6 3.7 2.4 7.1 12.3 7.1 12.3s-5.5-20.4-5.7-24.5c-.1-3.9-3.2-24.8 2-32.2 5.1-7.5 11.9-1.7 12.6-.2.6 1.5.8 21.7 2.7 27.3 1.8 5.6 9.4 29.1 9.4 29.1s.3-22.8 2.1-33c1.7-10.2 6.1-18.1 10.5-18.6s8.4 4.3 8.4 4.3-1.7 16.3-1.2 20c.5 3.7-.7 17.4 1.4 24.7 0 0-.2-19.4 2.8-21.9 3.1-2.5 5.6-3.6 7.3-2s2.1 13.2 3.7 20.1c1.8 6.9 1.5 16.4 2.7 27.1 1.1 10.7 5.6 25.8 4.7 34.3-.9 8.6-3.6 29.8-5.8 42.3s-7.8 29.6-7.8 29.6 2.6 9.1 2.1 17.3c-.5 8.1 19.5 62.3 19.5 62.3"/><path class="st1" d="M388.7 195c2.1 4.8 7.1 25 8.9 27.8 1.8 2.8 3.8 3.6 3.8 3.6m8.2-34s-.4 4.1 1.8 17.4c2.3 13.2 3.4 18.8 4.6 21.8m-48.2-36.1c2.8 8.1 4.2 20.9 5.8 24.8 1.6 3.8 3 4.6 3 4.6"/><path class="st1" d="M372.2 214.9s2.9 2.2 3.7 4.7M330 260.7s1.5 10.6 8.2 9.9m7.8-36.2s1.8 12.7-1.1 18m54.7-17.9s4.5 2.8 1.5 10.8c-3.1 8.1-8.3 40.6-8.3 40.6m26.3-42.8c1.9 7.3 2.1 7.5-1 16.5s-8 31-8 31m7.2 31.2s-3-5.9-.5-10.8m-67.4 27.4s7.4 10.5 10.7 22.1"/><path class="st15" d="M404.1 155.4l2-2 .9-.3v1l-1.9 2.4-1-1.1z"/><path class="st2" d="M405.7 156.5l-3.3 7.4-88 117.2-9.8-6.2 13.3-16.7 79-99.1 7-4.4c.1 0 1.6.4 1.8 1.8z"/><path class="st3" d="M405.7 156.5l-3.3 7.4-88 117.2-9.8-6.2 13.3-16.7c6.1-.6 7.1 3 7.1 3l75.7-98.9c-.8-2.7-3.9-3.2-3.9-3.2l7-4.4c.2 0 1.7.4 1.9 1.8z"/><path class="st1" d="M405.7 156.5l-3.3 7.4-88 117.2-9.8-6.2 13.3-16.7 79-99.1 7-4.4c.1 0 1.6.4 1.8 1.8z"/><path class="st2" d="M343.1 246.4s-9.9 19.5-19.2 33.2l-6.7 1.8s-15.5 15.4-25 23.1c0 0-2.5-1.4-4.6-3.8 0 0 13.4-25.7 28.2-42 0 0 2.2.7 4.8 2.6 1.6 1.2 3.5 2.8 5.1 4.8l16.6-20.8.8 1.1z"/><path class="st3" d="M343.1 246.4s-9.9 19.5-19.2 33.2l-6.7 1.8s-15.5 15.4-25 23.1l.3-4.1c10.3-15.7 23.3-32.7 28.2-39.1 1.6 1.2 3.5 2.8 5.1 4.8l-9.2 12.2 5.2-1 20.5-32.1.8 1.2z"/><path class="st1" d="M343.1 246.4s-9.9 19.5-19.2 33.2l-6.7 1.8s-15.5 15.4-25 23.1c0 0-2.5-1.4-4.6-3.8 0 0 13.4-25.7 28.2-42 0 0 2.2.7 4.8 2.6 1.6 1.2 3.5 2.8 5.1 4.8l16.6-20.8.8 1.1z"/><path class="st5" d="M177.3 250s6.2 29-7.3 50.1-24 26.7-28.6 33c-4.6 6.3-23 41.5-23 41.5L97 311.1l21.4-78.4 58.9 17.3z"/><path class="st6" d="M303.5 227.8l-132.7 55.8-13.7 5.7-25.8-61.2L71.4 85.9l146.5-61.6 85.6 203.5z"/><path class="st7" d="M180 50.8l-63.2 26.5c-1.2.5-1.8 1.9-1.3 3.1.5 1.2 1.9 1.8 3.1 1.3L181.8 55c1.2-.5 1.8-1.9 1.3-3.1-.5-1.1-1.9-1.6-3.1-1.1zm-12 15.5l-31.6 13.3c-.6.3-.9.9-.6 1.5.3.6.9.9 1.5.6l31.6-13.3c.6-.3.9-.9.6-1.5-.2-.6-.9-.9-1.5-.6z"/><path class="st13" d="M219.9 147.2s1.4 10.5-2.6 12.1c-3.6 1.5-8.3-4.1-12.3-2.4-4.1 1.7-.9 16.6-4.8 18.2-3.9 1.7-8.7-4.4-12.1-3s-1.4 9.1-4.8 10.6c-2.9 1.2-7-4.8-10.4-6.2-.7-.3-1.4-.4-2-.1-3.5 1.5-1.8 17.4-4.7 18.6-1 .4-1.9.5-2.7.4-1.2-.1-2.3-.4-3.4-.3-.4 0-.8.1-1.3.3-2.6 1.1-2.2 9.5-4.5 10.5-2.4 1-4.6-.2-7.1.8-2.5 1.1-2.5 5.4-6.2 7l1.6 3.7 90.8-38.3"/><path class="st10" d="M219.9 147.2s1.4 10.5-2.6 12.1c-3.6 1.5-8.3-4.1-12.3-2.4-4.1 1.7-.9 16.6-4.8 18.2-3.9 1.7-8.7-4.4-12.1-3s-1.4 9.1-4.8 10.6c-2.9 1.2-7-4.8-10.4-6.2-.7-.3-1.4-.4-2-.1-3.5 1.5-1.8 17.4-4.7 18.6-1 .4-1.9.5-2.7.4-1.2-.1-2.3-.4-3.4-.3-.4 0-.8.1-1.3.3-2.6 1.1-2.2 9.5-4.5 10.5-2.4 1-4.6-.2-7.1.8-2.5 1.1-2.5 5.4-6.2 7l1.6 3.7 90.8-38.3"/><path class="st1" d="M124.2 173.8l18.3 43.7 95.2-40"/><path class="st11" d="M227.2 164.6s-.5-.6-1.1-1.2c-1.2-1.1-3.1-2.6-4.4-2-1.4.6-1.5 2.9-1.5 5.3 0 3 .3 6.2-1.2 6.8-1.3.5-2.5-.3-3.6-1.2-1.4-1-2.8-2.1-4.4-1.4-2.8 1.2-2 4.8-3 8-.5 1.6-1.5 3.1-3.6 3.9-2.5 1-4.8 0-7.2-1.6-3.9-2.7-7.4-7-9.7-6-3.6 1.5.4 11.3-3.6 12.9-2.2.9-6.7-5.9-11-11.8-3.5-4.6-6.8-8.7-8.9-7.9-4.7 2 3.1 25.3-.4 26.8h-.1c-1.4.6-2.5.2-3.4-.3-1.2-.7-2.3-1.7-3.6-1.1-2.5 1.1-1.1 10.3-3.8 11.4-2.8 1.2-4.4-.5-7.5.8-2.7 1.1-4.2 7.5-4.2 7.5l1.6 3.7 90.8-38.3"/><path class="st1" d="M227.2 164.6s-.5-.6-1.1-1.2c-1.2-1.1-3.1-2.6-4.4-2-1.4.6-1.5 2.9-1.5 5.3 0 3 .3 6.2-1.2 6.8-1.3.5-2.5-.3-3.6-1.2-1.4-1-2.8-2.1-4.4-1.4-2.8 1.2-2 4.8-3 8-.5 1.6-1.5 3.1-3.6 3.9-2.5 1-4.8 0-7.2-1.6-3.9-2.7-7.4-7-9.7-6-3.6 1.5.4 11.3-3.6 12.9-2.2.9-6.7-5.9-11-11.8-3.5-4.6-6.8-8.7-8.9-7.9-4.7 2 3.1 25.3-.4 26.8h-.1c-1.4.6-2.5.2-3.4-.3-1.2-.7-2.3-1.7-3.6-1.1-2.5 1.1-1.1 10.3-3.8 11.4-2.8 1.2-4.4-.5-7.5.8-2.7 1.1-4.2 7.5-4.2 7.5l1.6 3.7 90.8-38.3"/><path class="st7" d="M208 195.7L176.5 209c-.6.3-.9.9-.6 1.5s.9.9 1.5.6l31.6-13.3c.6-.3.9-.9.6-1.5-.3-.5-1-.8-1.6-.6z"/><path class="st8" d="M234.8 147.6l-3.1 1.3c-.3.1-.7 0-.8-.3l-1.3-3.1c-.1-.3 0-.7.3-.8l3.1-1.3c.3-.1.7 0 .8.3l1.3 3.1c.1.3 0 .7-.3.8z"/><path class="st7" d="M249.5 138.2l-12.6 5.3c-.3.1-.6 0-.7-.3-.1-.3 0-.6.3-.7l12.6-5.3c.3-.1.6 0 .7.3.1.4 0 .6-.3.7zm-2.9 3.8l-8.8 3.6c-.3.1-.6 0-.7-.3-.1-.3 0-.6.3-.7l8.8-3.6c.3-.1.6 0 .7.3.1.3 0 .6-.3.7z"/><path class="st15" d="M238.8 157l-3.1 1.3c-.3.1-.7 0-.8-.3l-1.3-3.1c-.1-.3 0-.7.3-.8l3.1-1.3c.3-.1.7 0 .8.3l1.3 3.1c.1.3 0 .7-.3.8z"/><path class="st7" d="M253.5 147.7l-12.6 5.3c-.3.1-.6 0-.7-.3-.1-.3 0-.6.3-.7l12.6-5.3c.3-.1.6 0 .7.3.1.3 0 .5-.3.7zm-3 3.7l-8.8 3.6c-.3.1-.6 0-.7-.3-.1-.3 0-.6.3-.7l8.8-3.6c.3-.1.6 0 .7.3.1.3 0 .6-.3.7zm19.7 35l-102.6 43.2c-.6.3-.9.9-.6 1.5.3.6.9.9 1.5.6L271 188.4c.6-.3.9-.9.6-1.5-.3-.5-.9-.8-1.4-.5zm3.1 7.7l-119.2 50.2c-.6.3-.9.9-.6 1.5s.9.9 1.5.6l119.2-50.2c.6-.3.9-.9.6-1.5-.2-.5-.9-.8-1.5-.6zm3.3 7.7l-119.2 50.1c-.6.3-.9.9-.6 1.5.3.6.9.9 1.5.6l119.3-50.1c.6-.3.9-.9.6-1.5-.4-.6-1-.9-1.6-.6zm3.2 7.7l-119.2 50.2c-.6.3-.9.9-.6 1.5.3.6.9.9 1.5.6l119.2-50.2c.6-.3.9-.9.6-1.5-.2-.6-.9-.9-1.5-.6zM233 238.3l-69.1 29.1c-.6.3-.9.9-.6 1.5s.9.9 1.5.6l69.1-29.1c.6-.3.9-.9.6-1.5-.3-.6-.9-.9-1.5-.6z"/><path class="st13" d="M194.9 87.8s1.4 10.5-2.6 12.1c-3.6 1.5-8.3-4.1-12.3-2.4-4.1 1.7-.9 16.6-4.8 18.2-3.9 1.7-8.7-4.4-12.1-3s-1.4 9.1-4.8 10.6c-2.9 1.2-7-4.8-10.4-6.2-.7-.3-1.4-.4-2-.1-3.5 1.5-1.8 17.4-4.7 18.6-1 .4-1.9.5-2.7.4-1.2-.1-2.3-.4-3.4-.3-.4 0-.8.1-1.3.3-2.6 1.1-2.2 9.5-4.5 10.5s-4.6-.2-7.1.8c-2.5 1.1-2.5 5.4-6.2 7l1.6 3.7 90.8-38.3"/><path class="st10" d="M194.9 87.8s1.4 10.5-2.6 12.1c-3.6 1.5-8.3-4.1-12.3-2.4-4.1 1.7-.9 16.6-4.8 18.2-3.9 1.7-8.7-4.4-12.1-3s-1.4 9.1-4.8 10.6c-2.9 1.2-7-4.8-10.4-6.2-.7-.3-1.4-.4-2-.1-3.5 1.5-1.8 17.4-4.7 18.6-1 .4-1.9.5-2.7.4-1.2-.1-2.3-.4-3.4-.3-.4 0-.8.1-1.3.3-2.6 1.1-2.2 9.5-4.5 10.5s-4.6-.2-7.1.8c-2.5 1.1-2.5 5.4-6.2 7l1.6 3.7 90.8-38.3"/><path class="st2" d="M200.8 101.8s.8 5-1.2 5.9c-1.7.7-2.7-.3-4.4-.3-.7 0-1.5.1-2.6.5-1.6.7-2 2.9-2.3 5.1-.4 2.9-.5 6-2.7 6.9-1.5.6-3.1.3-4.7-.3-2.6-.9-5.3-2.4-8-1.3-1.3.5-2.2 2-2.9 3.6-1.7 4-2.2 10-3.9 10.7-2.6 1.1-7.2-3.3-9.5-2.4-2.3 1-1.3 4.8-3.2 5.6-1.9.8-2.9-1.5-6.1-.1-3.3 1.4-1.7 6.1-6.2 8-4.5 1.9-6.5-1.6-10.9.2-4.3 1.9-3.6 5.1-6.7 6.5-3.1 1.3-4.4-1-6.6 0-2.2.9-2.8 4.4-2.8 4.6l1.2 2.9 90.8-38.3"/><path class="st10" d="M200.8 101.8s.8 5-1.2 5.9c-1.7.7-2.7-.3-4.4-.3-.7 0-1.5.1-2.6.5-1.6.7-2 2.9-2.3 5.1-.4 2.9-.5 6-2.7 6.9-1.5.6-3.1.3-4.7-.3-2.6-.9-5.3-2.4-8-1.3-1.3.5-2.2 2-2.9 3.6-1.7 4-2.2 10-3.9 10.7-2.6 1.1-7.2-3.3-9.5-2.4-2.3 1-1.3 4.8-3.2 5.6-1.9.8-2.9-1.5-6.1-.1-3.3 1.4-1.7 6.1-6.2 8-4.5 1.9-6.5-1.6-10.9.2-4.3 1.9-3.6 5.1-6.7 6.5-3.1 1.3-4.4-1-6.6 0-2.2.9-2.8 4.4-2.8 4.6l1.2 2.9 90.8-38.3"/><path class="st1" d="M99.1 114.4l18.4 43.7 95.1-40"/><path class="st7" d="M182.7 135.7L151.1 149c-.6.3-.9.9-.6 1.5.3.6.9.9 1.5.6l31.6-13.3c.6-.3.9-.9.6-1.5-.3-.6-.9-.9-1.5-.6z"/><path class="st8" d="M208.2 84.4l-3.1 1.3c-.3.1-.7 0-.8-.3l-1.3-3.1c-.1-.3 0-.7.3-.8l3.1-1.3c.3-.1.7 0 .8.3l1.3 3.1c.1.3 0 .7-.3.8z"/><path class="st7" d="M222.9 75l-12.6 5.3c-.3.1-.6 0-.7-.3s0-.6.3-.7l12.6-5.3c.3-.1.6 0 .7.3s0 .6-.3.7zm-3 3.8l-8.8 3.6c-.3.1-.6 0-.7-.3-.1-.3 0-.6.3-.7l8.8-3.6c.3-.1.6 0 .7.3.1.3 0 .6-.3.7z"/><path class="st14" d="M212.2 93.8l-3.1 1.3c-.3.1-.7 0-.8-.3l-1.3-3.1c-.1-.3 0-.7.3-.8l3.1-1.3c.3-.1.7 0 .8.3l1.3 3.1c.1.3 0 .7-.3.8z"/><path class="st7" d="M226.9 84.4l-12.6 5.3c-.3.1-.6 0-.7-.3-.1-.3 0-.6.3-.7l12.6-5.3c.3-.1.6 0 .7.3 0 .3-.1.6-.3.7zm-3 3.8l-8.8 3.6c-.3.1-.6 0-.7-.3s0-.6.3-.7l8.8-3.6c.3-.1.6 0 .7.3.1.3 0 .6-.3.7z"/><path class="st5" d="M170.8 283.6l-13.7 5.7-25.7-61.2c1.6-1.6 3.6-4.1 4.3-8.5 1.6-8.2.5-34.6 21-37.3 20.5-2.8 3.3 43.5 4.1 52.3.9 8.1 12.6 31.3 10 49z"/><path class="st1" d="M303.5 227.8l-132.7 55.8-13.7 5.7-25.8-61.2L71.4 85.9l146.5-61.6 85.6 203.5z"/><path class="st6" d="M162.5 237.9c2.3-7.9 11.3-33.1 10.2-44.3-.1-.9-.3-1.9-.6-2.8-3.2-8.4-16.1-7.5-21-.6-5.4 7.6-9.9 21.3-10.3 29.6-.2 4.6-2.2 8.9-3.9 11.7-1.4 2.3-2.6 3.7-2.6 3.7l-29.4-69.8s-4.7 3.8-7.7 8.6c-1.2 1.9-2.1 3.9-2.3 6-.6 6.9-8.4 35.1-11.6 47-.1.3-.1.5-.2.7-3.2 11.4 5.1 54 2.8 66.4-2.4 12.3-3.8 12.1-4.1 20.9-.3 6.4-9.5 25.9-19.7 46-5.9 11.4-12.1 23.1-17.3 32.5l75.3-3.2c1.3-9.2 2.7-18.8 3.8-28.1.5-3.9 1.3-7.7 2.3-11.5 1.7-6.7 3.6-12.8 4.9-16.4 2-5.5 3.9-15.9 3.9-15.9 8.8-9.3 20.2-23.9 23.6-33.7v-.1c.9-2.5 1.2-4.6.8-6.4-.3-1.4-.5-3.3-.6-5.4-.7-10.5 1.8-28.3 3.7-34.9z"/><path d="M168 190c-3.7-3.7-9.3-3-11.8 0l-1.4 3.3c-.6 1.4 0 3.1 1.4 3.9l10 5.1c1.6.8 3.6 0 3.9-1.8.5-3.4.5-7.9-2.1-10.5z" fill="none" stroke="#000"/><path class="st1" d="M56 372.8c9.5-17.3 18.6-35 25.3-54.1.8-2.8-.3-6.3.5-9.1 9-24.8-1.2-50.7.5-76.1 1.4-10.1 4.6-20.1 7.8-30.3 1.5-7.3 2.1-15.5 4.5-22.9 2.5-5.5 4.9-12 10.3-14.8 10.1 23.1 20.1 46.2 29.4 69.8 4.2-2.5 4.9-7.9 5.6-12.4 2.3-10.9 4.5-21 8.7-30.3 4.2-7.4 15-10.6 21.6-4.5 1.9 1.8 2.9 4.4 3.1 7.1-1.3 12.7-5.3 25.6-9.3 37.6-1.6 5.5-3.3 10.1-3.8 15.6.1 1.8.1 2.8.2 4.5-2.4 9.2-.2 17.3-.7 26.3-2.1 16.4-15.2 27.8-24.7 40-2.4 9.2-4.6 18.3-7.9 27.5-3.9 13.8-5.2 27.4-6.6 40.6"/><path class="st1" d="M134.2 235.4s-3.1 5.9-4.3 10.7c-1.3 4.8-7.5 4.1-10.8 7.1"/><path class="st1" d="M110.7 226.9s8.5 3 13.4 6.8 8.6 4.8 8.6 4.8m-27.5-32.7s6.8 1.9 11.9-.5c0 0 .4-4.2 1.3-7.3m.4 8.3s.1 1 3.6 1m12.4 111.3s-6.7 6-10.8 17M82.6 230c-.3 5.9 6.6 26.9 8.8 37.4 2.1 10.5 2.9 17.8 2.9 17.8"/></svg>