<?xml version="1.0" standalone="no"?>
<!DOCTYPE svg PUBLIC "-//W3C//DTD SVG 20010904//EN"
 "http://www.w3.org/TR/2001/REC-SVG-20010904/DTD/svg10.dtd">
<svg version="1.0" xmlns="http://www.w3.org/2000/svg"
 width="1232.000000pt" height="1232.000000pt" viewBox="0 0 1232.000000 1232.000000"
 preserveAspectRatio="xMidYMid meet">
<g transform="translate(0.000000,1232.000000) scale(0.100000,-0.100000)"
fill="#000000" stroke="none">
<path d="M10934 10332 c-13 -30 -24 -60 -24 -66 0 -7 -4 -16 -9 -21 -4 -6 -20
-41 -35 -80 -15 -38 -34 -83 -41 -100 -7 -16 -22 -53 -34 -82 -11 -28 -26 -64
-33 -80 -6 -15 -12 -32 -14 -38 -5 -16 -153 -376 -175 -422 -10 -24 -19 -47
-19 -53 0 -6 -4 -18 -10 -28 -12 -23 -30 -64 -86 -202 -25 -63 -51 -126 -57
-140 -5 -14 -11 -29 -12 -35 -2 -5 -12 -30 -23 -55 -12 -25 -42 -97 -68 -160
-25 -63 -57 -142 -71 -175 -13 -33 -26 -66 -27 -73 -1 -7 -8 -18 -14 -24 -7
-7 -12 -18 -12 -26 0 -8 -7 -28 -15 -45 -24 -53 -121 -294 -125 -312 -1 -5
-10 -26 -21 -46 -10 -20 -15 -39 -12 -43 4 -3 1 -6 -5 -6 -7 0 -12 -7 -12 -16
0 -9 -6 -28 -14 -42 -8 -15 -33 -73 -55 -129 -23 -56 -46 -115 -53 -130 -6
-15 -12 -30 -13 -33 -1 -3 -9 -22 -18 -44 -9 -21 -17 -40 -17 -43 0 -2 -8 -23
-19 -46 -17 -40 -32 -76 -36 -87 -1 -3 -6 -16 -12 -30 -6 -14 -23 -56 -38 -95
-16 -38 -32 -74 -36 -79 -5 -6 -9 -16 -9 -23 0 -7 -11 -36 -23 -65 -13 -29
-34 -80 -47 -113 -13 -33 -26 -64 -30 -70 -4 -5 -15 -32 -25 -60 -10 -27 -26
-68 -35 -90 -10 -22 -39 -92 -64 -155 -26 -63 -50 -124 -55 -135 -5 -11 -16
-36 -25 -57 -9 -20 -16 -40 -16 -45 0 -4 -10 -26 -21 -48 -12 -22 -21 -40 -20
-40 4 0 -133 -340 -170 -422 -10 -23 -19 -47 -19 -53 0 -5 -4 -18 -10 -28 -10
-20 -28 -60 -65 -152 -14 -36 -35 -84 -46 -107 -10 -24 -19 -45 -19 -47 0 -5
-143 -358 -175 -431 -7 -16 -22 -55 -34 -85 -12 -30 -26 -64 -31 -75 -29 -65
-92 -222 -94 -234 -5 -29 -22 -21 -39 17 -9 21 -17 42 -17 45 0 4 -11 30 -24
59 -30 68 -61 141 -62 148 0 3 -10 27 -22 53 -12 27 -22 51 -22 53 0 2 -10 26
-21 52 -35 77 -46 106 -54 132 -4 14 -11 30 -15 35 -4 6 -20 42 -35 80 -15 39
-31 74 -36 80 -5 5 -9 15 -9 23 0 8 -6 28 -14 45 -8 18 -29 66 -46 107 -17 41
-35 84 -40 95 -27 57 -92 222 -93 233 0 6 -4 12 -9 12 -4 0 -8 8 -8 18 0 10
-4 22 -8 27 -5 6 -19 37 -31 70 -13 33 -32 80 -43 105 -23 51 -28 63 -59 140
-12 30 -33 80 -46 110 -14 30 -26 60 -27 65 -2 6 -10 28 -20 50 -10 22 -47
112 -83 200 -36 88 -74 180 -85 205 -24 53 -21 46 -94 225 -31 77 -62 146 -68
154 -6 8 -10 15 -8 15 4 1 -6 31 -23 71 -8 17 -23 55 -35 85 -22 57 -33 82
-69 163 l-21 47 -2318 -2 -2317 -3 -1 -512 -1 -513 36 0 c20 0 375 0 789 -1
l752 0 0 -2194 0 -2194 545 1 545 0 1 21 c0 12 1 999 2 2192 l2 2170 557 2
558 2 12 -22 c6 -12 11 -23 10 -24 -2 -4 86 -202 116 -262 9 -19 17 -38 17
-42 0 -4 3 -11 8 -15 4 -4 7 -16 7 -26 0 -10 4 -18 9 -18 5 0 15 -16 21 -34 6
-19 24 -62 41 -96 16 -33 29 -62 29 -65 0 -2 14 -35 31 -72 17 -38 58 -129 91
-203 60 -134 84 -189 129 -285 13 -27 24 -52 24 -55 1 -3 7 -18 13 -33 7 -16
12 -33 12 -38 0 -5 4 -9 9 -9 5 0 12 -11 15 -25 4 -14 27 -68 51 -121 25 -53
45 -97 45 -99 0 -3 41 -94 88 -195 9 -19 17 -37 17 -40 1 -3 11 -27 24 -55 13
-27 31 -68 41 -90 10 -22 34 -75 54 -118 20 -43 36 -85 36 -93 0 -7 5 -14 10
-14 6 0 10 -4 10 -10 0 -5 11 -33 24 -62 13 -29 47 -107 77 -173 30 -66 54
-122 54 -125 1 -3 20 -45 44 -95 24 -49 44 -94 45 -100 2 -11 46 -106 82 -178
13 -27 24 -53 24 -58 0 -5 15 -40 34 -79 19 -39 36 -74 37 -78 1 -4 15 -36 31
-71 16 -36 36 -81 44 -100 9 -20 31 -69 50 -109 19 -39 34 -75 34 -78 0 -3 18
-43 40 -90 22 -47 40 -87 40 -89 0 -3 13 -33 30 -67 16 -34 30 -67 30 -75 0
-7 5 -13 10 -13 6 0 9 -3 8 -7 -1 -9 11 -39 48 -121 15 -31 37 -82 51 -112 13
-30 34 -75 45 -99 11 -25 55 -124 98 -221 110 -248 122 -272 130 -263 3 4 19
37 34 73 34 79 36 82 131 295 42 94 78 175 79 180 1 6 17 40 34 78 18 37 32
69 32 72 0 2 18 43 40 90 22 47 40 88 40 91 0 2 13 32 29 66 66 145 73 161
127 288 20 45 34 77 79 175 20 44 38 85 39 90 3 12 41 97 62 139 8 16 14 35
14 41 0 7 7 18 15 25 8 7 15 18 15 26 0 7 13 41 29 76 50 110 61 136 61 147 0
6 5 11 10 11 6 0 10 6 10 12 0 15 89 219 101 233 5 5 9 14 9 21 0 7 15 45 34
86 18 40 50 111 71 158 21 47 50 113 66 148 16 35 29 65 29 67 0 2 15 36 34
77 30 65 46 103 51 118 1 3 18 40 38 84 20 43 37 80 37 82 0 3 26 62 70 159
10 22 32 71 49 108 17 38 31 70 31 72 0 3 13 33 29 67 15 35 39 88 52 118 12
30 28 58 33 62 6 4 7 8 3 8 -5 0 -2 12 6 28 8 15 29 59 45 97 43 98 80 181
108 242 13 28 24 54 24 57 0 2 13 33 29 68 16 35 38 84 50 111 12 26 29 66 40
90 10 23 51 116 91 207 40 91 88 197 106 237 19 39 34 74 34 77 0 3 14 34 30
68 17 34 30 65 30 69 0 4 20 50 45 103 25 53 45 98 45 100 0 2 14 33 30 70 17
36 30 68 30 71 -1 3 6 18 14 33 8 15 24 47 35 72 10 25 31 72 46 105 33 75 48
109 50 115 0 3 15 36 33 73 18 38 32 70 32 72 0 2 18 43 40 90 22 47 40 88 40
90 0 3 11 28 24 57 49 109 69 154 88 198 11 25 26 58 33 75 39 87 72 162 120
270 29 66 61 140 73 165 57 127 154 346 156 355 2 6 15 37 30 70 41 89 54 119
161 360 53 121 108 243 121 272 13 28 24 54 24 56 0 3 15 38 34 79 19 40 48
107 66 148 18 41 46 103 61 138 16 34 29 66 29 70 0 4 -291 7 -646 7 l-646 1
-24 -54z"/>
<path d="M0 7215 l0 -515 113 0 c61 -1 354 -1 649 -1 l537 0 0 -2162 c0 -1189
0 -2176 1 -2194 l0 -32 545 1 c398 0 545 3 546 12 0 6 1 1225 2 2709 l2 2697
-1197 0 -1198 0 0 -515z"/>
</g>
</svg>
