<svg width="579" height="454" viewBox="0 0 579 454" fill="none" xmlns="http://www.w3.org/2000/svg"><mask id="mask0_47_221" style="mask-type:alpha" maskUnits="userSpaceOnUse" x="0" y="0" width="579" height="454"><path fill="#C4C4C4" d="M0 0h579v454H0z"/></mask><g mask="url(#mask0_47_221)"><path d="M250.434 136.96l-35.093-5.677c-2.752-.516-4.645-3.097-4.301-5.849l5.677-35.093c.516-2.752 3.097-4.645 5.849-4.3l35.093 5.676c2.752.516 4.645 3.097 4.301 5.849l-5.677 35.093c-.344 2.752-2.925 4.645-5.849 4.301zM111.34 380.812l-14.675 12.385c-1.18.948-2.93.83-3.96-.306l-12.386-14.675c-.948-1.18-.83-2.931.307-3.961L95.3 361.87c1.18-.948 2.93-.83 3.96.307l12.386 14.675c1.073 1.218.873 3.012-.307 3.96zm463.185-13.214l-52.097 30.895c-4.164 2.33-9.456 1.022-12.011-2.954l-30.895-52.097c-2.331-4.163-1.022-9.456 2.954-12.011l52.096-30.895c4.164-2.33 9.456-1.022 12.012 2.954l30.894 52.097c2.744 4.2 1.21 9.681-2.953 12.011z" stroke="#000" stroke-width=".5" stroke-miterlimit="10" stroke-linecap="round"/><path d="M175.769 327.876H75.649C59.26 327.876 46 314.609 46 298.104v-94.436C46 187.267 59.259 174 75.65 174h200.134c16.391 0 29.65 13.267 29.65 29.668v94.54c0 16.401-13.259 29.668-29.65 29.668H175.769z" fill="#E4F9FF" stroke="#000" stroke-miterlimit="10"/><path d="M271.713 217.353h-42.804m-11.275 0h-74.02m-10.858 0h-52.93m0 22.459h34.869m5.22 0h58.464m3.863 0h89.471m0 22.878H231.31m-6.995 0h-71.931m-8.77 0H79.826m0 22.46h19.94m8.039 0h49.172m5.742 0h21.611m8.978 0h64.415m5.011 0h8.979" stroke="#000" stroke-miterlimit="10" stroke-linecap="round"/><path d="M336.63 226.999l23.24-17.65h42.865a9.47 9.47 0 009.481-9.488v-34.374c0-5.207-4.234-9.487-9.481-9.487h-61.254a9.47 9.47 0 00-9.481 9.487v34.374c0 5.207 4.233 9.488 9.481 9.488h1.676l-6.527 17.65z" fill="#263238" stroke="#263238" stroke-miterlimit="10" stroke-linecap="round"/><path d="M389.769 185.432a3.484 3.484 0 01-3.483-3.486 3.484 3.484 0 116.967 0 3.484 3.484 0 01-3.484 3.486zm-17.419 0a3.485 3.485 0 01-3.484-3.486 3.485 3.485 0 013.484-3.486 3.485 3.485 0 013.484 3.486 3.485 3.485 0 01-3.484 3.486zm-17.904 0a3.485 3.485 0 01-3.484-3.486 3.485 3.485 0 013.484-3.486 3.485 3.485 0 013.484 3.486 3.485 3.485 0 01-3.484 3.486z" fill="#02CFFE"/><path d="M462.058 432.559H289.507L243.261 483l-.255-50.441h-25.595c-20.036 0-36.244-16.217-36.244-36.266V280.726c0-20.048 16.208-36.266 36.244-36.266h244.647c20.036 0 36.244 16.218 36.244 36.266v115.439c0 20.177-16.208 36.394-36.244 36.394z" fill="#fff" stroke="#000" stroke-miterlimit="10"/><path d="M222.388 297.455h52.324m13.783 0h90.482m13.273 0h64.703m0 27.455h-42.625m-6.381 0H336.48m-4.722 0h-109.37m0 27.965h49.389m8.55 0h87.93m10.72 0h77.976m0 27.456h-24.375m-9.827 0h-60.109m-7.019 0h-26.418m-10.975 0h-78.741m-6.125 0h-10.975" stroke="#000" stroke-miterlimit="10" stroke-linecap="round"/></g></svg>