<svg width="304" height="262" viewBox="0 0 304 262" fill="none" xmlns="http://www.w3.org/2000/svg"><path d="M82.371 34.246l-22.894-3.704c-1.796-.337-3.03-2.02-2.806-3.816l3.704-22.894c.336-1.796 2.02-3.03 3.815-2.806L87.085 4.73c1.796.337 3.03 2.02 2.806 3.816L86.187 31.44c-.224 1.796-1.908 3.03-3.816 2.806zm211.435 150.466l-33.988 20.156c-2.716 1.52-6.169.667-7.836-1.927l-20.155-33.988c-1.521-2.716-.667-6.169 1.927-7.836l33.987-20.155c2.716-1.521 6.169-.667 7.836 1.927l20.156 33.987c1.789 2.741.789 6.316-1.927 7.836z" stroke="#000" stroke-width=".5" stroke-miterlimit="10" stroke-linecap="round"/><path d="M33.66 158.798h-65.317c-10.693 0-19.343-8.655-19.343-19.423v-61.61c0-10.7 8.65-19.354 19.343-19.354H98.91c10.693 0 19.343 8.655 19.343 19.355v61.677c0 10.7-8.65 19.355-19.343 19.355H33.66z" fill="#E4F9FF" stroke="#000" stroke-miterlimit="10"/><path d="M96.254 86.693H68.329m-7.356 0h-48.29m-7.083 0h-34.532m26.154 14.653h38.141m2.52 0h58.37m.001 14.925h-26.36m-4.562 0H18.404m-5.721 0h-41.615m18.253 14.653h32.08m3.746 0h14.099m5.857 0h42.024m3.269 0h5.858" stroke="#000" stroke-miterlimit="10" stroke-linecap="round"/><path d="M138.605 92.987l15.162-11.515h27.964a6.178 6.178 0 006.186-6.19V52.857c0-3.397-2.762-6.19-6.186-6.19H141.77a6.178 6.178 0 00-6.186 6.19v22.425c0 3.397 2.762 6.19 6.186 6.19h1.093l-4.258 11.515z" fill="#263238" stroke="#263238" stroke-miterlimit="10" stroke-linecap="round"/><path d="M173.273 65.869a2.274 2.274 0 11.002-4.548 2.274 2.274 0 01-.002 4.548zm-11.364 0a2.273 2.273 0 01-2.273-2.275 2.273 2.273 0 112.273 2.275zm-11.681 0a2.274 2.274 0 11.002-4.548 2.274 2.274 0 01-.002 4.548z" fill="#02CFFE"/><path d="M220.433 227.093H107.862L77.692 260l-.167-32.907H60.827c-13.071 0-23.645-10.58-23.645-23.66v-75.395c0-13.08 10.574-23.66 23.645-23.66h159.606c13.072 0 23.646 10.58 23.646 23.66v75.312c0 13.163-10.574 23.743-23.646 23.743z" fill="#fff" stroke="#000" stroke-miterlimit="10"/><path d="M64.075 138.951H98.21m8.992 0h59.03m8.659 0h42.212m0 17.912h-27.808m-4.163 0h-46.625m-3.08 0H64.074m.001 18.245h32.22m5.578 0h57.365m6.994 0h50.871m0 17.911H201.2m-6.41 0h-39.215m-4.579 0h-17.235m-7.16 0h-51.37m-3.996 0h-7.16" stroke="#000" stroke-miterlimit="10" stroke-linecap="round"/></svg>