<svg width="289" height="114" viewBox="0 0 289 114" fill="none" xmlns="http://www.w3.org/2000/svg"><path d="M33.926 60.56L26.53 66.8a1.466 1.466 0 01-1.996-.154l-6.241-7.395a1.466 1.466 0 01.154-1.995l7.395-6.242a1.466 1.466 0 011.996.155l6.241 7.395c.541.614.44 1.518-.154 1.995z" stroke="#000" stroke-width=".5" stroke-miterlimit="10" stroke-linecap="round"/><path d="M66.392 33.884H15.941C7.68 33.884 1 27.2 1 18.882v-47.588c0-8.264 6.681-14.95 14.94-14.95h100.851c8.26 0 14.941 6.686 14.941 14.95v47.64c0 8.265-6.681 14.95-14.941 14.95H66.392z" fill="#E4F9FF" stroke="#000" stroke-miterlimit="10"/><path d="M114.74 1.036H94.38m-3.525 0H54.608m-4.419 0H18.045m0 11.318h10.048m4.051 0h24.779m2.893 0h10.89m4.524 0h32.46m2.526 0h4.524" stroke="#000" stroke-miterlimit="10" stroke-linecap="round"/><path d="M210.657 86.636h-86.951l-23.304 25.418-.128-25.418H87.376c-10.096 0-18.264-8.172-18.264-18.275V10.125C69.112.022 77.28-8.15 87.376-8.15h123.281c10.097 0 18.264 8.172 18.264 18.275v58.171c0 10.168-8.167 18.34-18.264 18.34z" fill="#fff" stroke="#000" stroke-miterlimit="10"/><path d="M89.884 18.555h26.367m6.945 0h45.596m6.688 0h32.605m0 13.835h-21.48m-3.215 0h-36.013m-2.38 0H89.884m.001 14.092h24.887m4.309 0h44.309m5.402 0h39.293m0 13.835h-12.283m-4.952 0h-30.29m-3.537 0h-13.312m-5.53 0h-39.68m-3.086 0h-5.53" stroke="#000" stroke-miterlimit="10" stroke-linecap="round"/></svg>